<svg aria-hidden="true" style="position: absolute; width: 0; height: 0; overflow: hidden;" version="1.1" xmlns="http://www.w3.org/2000/svg" xmlns:xlink="http://www.w3.org/1999/xlink">
<defs>
<symbol id="icon-menu" viewBox="0 0 32 32">
<path d="M2 6h28v6h-28zM2 14h28v6h-28zM2 22h28v6h-28z"></path>
</symbol>


<symbol id="topic-1-icon"  viewBox="0 0 72 72" fill="none" xmlns="http://www.w3.org/2000/svg">
<path d="M42.0512 16.2004C42.0512 19.5417 39.3425 22.2504 36.0012 22.2504C32.6598 22.2504 29.9512 19.5417 29.9512 16.2004C29.9512 12.8591 32.6598 10.1504 36.0012 10.1504C39.3425 10.1504 42.0512 12.8591 42.0512 16.2004Z" stroke="white" stroke-width="0.5"/>
<path d="M68.1996 19.7997V19.8001V27.9001C68.1996 28.0857 68.1259 28.2638 67.9946 28.395C67.8633 28.5263 67.6853 28.6001 67.4996 28.6001H4.49961C4.31396 28.6001 4.13591 28.5263 4.00464 28.395C3.87336 28.2638 3.79961 28.0857 3.79961 27.9001L3.79961 19.8001L3.79961 19.7997C3.79941 19.6792 3.83049 19.5607 3.88981 19.4558C3.94913 19.3509 4.03466 19.2632 4.13803 19.2012L4.13812 19.2012L35.6381 0.301161L35.6388 0.300728C35.7476 0.234832 35.8724 0.2 35.9996 0.2C36.1268 0.2 36.2516 0.234832 36.3604 0.30073L36.3611 0.301159L67.8611 19.2012L67.8612 19.2012C67.9646 19.2632 68.0501 19.3509 68.1094 19.4558C68.1687 19.5607 68.1998 19.6792 68.1996 19.7997ZM5.29671 20.1398L5.19961 20.198V20.3113V27.0001V27.2001H5.39961H66.5996H66.7996V27.0001V20.3113V20.198L66.7025 20.1398L36.1025 1.77976L35.9996 1.71802L35.8967 1.77976L5.29671 20.1398Z" stroke="white" stroke-width="0.4"/>
<path d="M68.2 64.7992V64.9992H68.4H70.2C70.6243 64.9992 71.0313 65.1678 71.3314 65.4679C71.6314 65.7679 71.8 66.1749 71.8 66.5992V71.0992C71.8 71.2849 71.7262 71.4629 71.595 71.5942C71.4637 71.7255 71.2857 71.7992 71.1 71.7992H0.9C0.71435 71.7992 0.536304 71.7255 0.405028 71.5942C0.273751 71.4629 0.2 71.2849 0.2 71.0992V66.5992C0.2 66.1749 0.368574 65.7679 0.668633 65.4679C0.968693 65.1678 1.37566 64.9992 1.8 64.9992H3.6H3.8V64.7992V62.9992C3.8 62.5749 3.96857 62.1679 4.26863 61.8679C4.56869 61.5678 4.97566 61.3992 5.4 61.3992H66.6C67.0243 61.3992 67.4313 61.5678 67.7314 61.8679C68.0314 62.1679 68.2 62.5749 68.2 62.9992V64.7992ZM5.4 62.7992H5.2V62.9992V64.7992V64.9992H5.4H66.6H66.8V64.7992V62.9992V62.7992H66.6H5.4ZM70.2 70.3992H70.4V70.1992V66.5992V66.3992H70.2H1.8H1.6V66.5992V70.1992V70.3992H1.8H70.2Z" stroke="white" stroke-width="0.4"/>
<path d="M10.2 56.7V33.3C10.2 32.9937 10.294 32.7073 10.4514 32.5027C10.6079 32.2992 10.8073 32.2 11 32.2C11.1927 32.2 11.3921 32.2992 11.5486 32.5027C11.706 32.7073 11.8 32.9937 11.8 33.3V56.7C11.8 57.0063 11.706 57.2927 11.5486 57.4973C11.3921 57.7008 11.1927 57.8 11 57.8C10.8073 57.8 10.6079 57.7008 10.4514 57.4973C10.294 57.2927 10.2 57.0063 10.2 56.7Z" stroke="white" stroke-width="0.4"/>
<path d="M17.2 56.7V33.3C17.2 32.9937 17.294 32.7073 17.4514 32.5027C17.6079 32.2992 17.8073 32.2 18 32.2C18.1927 32.2 18.3921 32.2992 18.5486 32.5027C18.706 32.7073 18.8 32.9937 18.8 33.3V56.7C18.8 57.0063 18.706 57.2927 18.5486 57.4973C18.3921 57.7008 18.1927 57.8 18 57.8C17.8073 57.8 17.6079 57.7008 17.4514 57.4973C17.294 57.2927 17.2 57.0063 17.2 56.7Z" stroke="white" stroke-width="0.4"/>
<path d="M39.2 56.7V33.3C39.2 32.9937 39.294 32.7073 39.4514 32.5027C39.6079 32.2992 39.8073 32.2 40 32.2C40.1927 32.2 40.3921 32.2992 40.5486 32.5027C40.706 32.7073 40.8 32.9937 40.8 33.3V56.7C40.8 57.0063 40.706 57.2927 40.5486 57.4973C40.3921 57.7008 40.1927 57.8 40 57.8C39.8073 57.8 39.6079 57.7008 39.4514 57.4973C39.294 57.2927 39.2 57.0063 39.2 56.7Z" stroke="white" stroke-width="0.4"/>
<path d="M31.2 56.7V33.3C31.2 32.9937 31.294 32.7073 31.4514 32.5027C31.6079 32.2992 31.8073 32.2 32 32.2C32.1927 32.2 32.3921 32.2992 32.5486 32.5027C32.706 32.7073 32.8 32.9937 32.8 33.3V56.7C32.8 57.0063 32.706 57.2927 32.5486 57.4973C32.3921 57.7008 32.1927 57.8 32 57.8C31.8073 57.8 31.6079 57.7008 31.4514 57.4973C31.294 57.2927 31.2 57.0063 31.2 56.7Z" stroke="white" stroke-width="0.4"/>
<path d="M53.2 56.7V33.3C53.2 32.9937 53.294 32.7073 53.4514 32.5027C53.6079 32.2992 53.8073 32.2 54 32.2C54.1927 32.2 54.3921 32.2992 54.5486 32.5027C54.706 32.7073 54.8 32.9937 54.8 33.3V56.7C54.8 57.0063 54.706 57.2927 54.5486 57.4973C54.3921 57.7008 54.1927 57.8 54 57.8C53.8073 57.8 53.6079 57.7008 53.4514 57.4973C53.294 57.2927 53.2 57.0063 53.2 56.7Z" stroke="white" stroke-width="0.4"/>
<path d="M60.2 56.7V33.3C60.2 32.9937 60.294 32.7073 60.4514 32.5027C60.6079 32.2992 60.8073 32.2 61 32.2C61.1927 32.2 61.3921 32.2992 61.5486 32.5027C61.706 32.7073 61.8 32.9937 61.8 33.3V56.7C61.8 57.0063 61.706 57.2927 61.5486 57.4973C61.3921 57.7008 61.1927 57.8 61 57.8C60.8073 57.8 60.6079 57.7008 60.4514 57.4973C60.294 57.2927 60.2 57.0063 60.2 56.7Z" stroke="white" stroke-width="0.4"/>
</symbol>

<symbol id="topic-2-icon" xmlns="http://www.w3.org/2000/svg"  viewBox="0 0 64 52" fill="none">
<path d="M42.6973 33.653L42.7402 33.8498H42.9416H46.9508V38.1498H42.9416H42.7402L42.6973 38.3466C42.4218 39.6103 41.9229 40.8148 41.224 41.9031L41.1152 42.0726L41.2576 42.215L44.092 45.0494L41.0504 48.0911L38.216 45.2566L38.0734 45.1141L37.9039 45.2232C36.8163 45.9233 35.6118 46.4222 34.3478 46.6963L34.1508 46.739V46.9406V50.9498H29.8508V46.9406V46.739L29.6538 46.6963C28.3897 46.4222 27.1852 45.9233 26.0977 45.2232L25.9282 45.1141L25.7856 45.2566L22.9512 48.0911L19.9095 45.0494L22.744 42.215L22.8864 42.0726L22.7775 41.9031C22.0786 40.8148 21.5797 39.6103 21.3043 38.3466L21.2614 38.1498H21.06H17.0508V33.8498H21.06H21.2614L21.3043 33.653C21.5797 32.3893 22.0786 31.1848 22.7775 30.0965L22.8864 29.927L22.744 29.7846L19.9095 26.9502L22.9512 23.9086L25.7856 26.743L25.9282 26.8856L26.0977 26.7764C27.1852 26.0764 28.3897 25.5774 29.6538 25.3033L29.8508 25.2606V25.059V21.0498H34.1508V25.059V25.2606L34.3478 25.3033C35.6118 25.5774 36.8163 26.0764 37.9039 26.7764L38.0734 26.8856L38.216 26.743L41.0504 23.9086L44.092 26.9502L41.2576 29.7846L41.1152 29.927L41.224 30.0965C41.9229 31.1848 42.4218 32.3893 42.6973 33.653ZM29.1952 40.1987C30.0256 40.7536 31.002 41.0498 32.0008 41.0498C33.3401 41.0498 34.6246 40.5177 35.5717 39.5707C36.5187 38.6236 37.0508 37.3392 37.0508 35.9998C37.0508 35.001 36.7546 34.0247 36.1997 33.1942C35.6448 32.3637 34.8561 31.7164 33.9333 31.3342C33.0106 30.952 31.9952 30.852 31.0156 31.0468C30.036 31.2417 29.1362 31.7227 28.4299 32.4289C27.7237 33.1352 27.2427 34.035 27.0478 35.0146C26.853 35.9942 26.953 37.0096 27.3352 37.9324C27.7174 38.8551 28.3647 39.6438 29.1952 40.1987Z" stroke="#F4F4F5" stroke-width="0.5"/>
<path d="M1.6 10.9499H1.35V11.1999V45.5998C1.35 46.0904 1.54492 46.561 1.89186 46.9079C2.2388 47.2548 2.70935 47.4498 3.2 47.4498H16.8C16.9459 47.4498 17.0858 47.5077 17.1889 47.6108C17.2921 47.714 17.35 47.8539 17.35 47.9998C17.35 48.1456 17.2921 48.2855 17.1889 48.3887C17.0858 48.4918 16.9459 48.5498 16.8 48.5498H3.2C2.41761 48.5498 1.66728 48.2389 1.11404 47.6857C0.560808 47.1325 0.25 46.3821 0.25 45.5998V3.19998C0.25 2.4176 0.560808 1.66727 1.11404 1.11404C1.66728 0.560807 2.41761 0.25 3.2 0.25H60.8C61.5824 0.25 62.3327 0.560807 62.886 1.11404C63.4392 1.66727 63.75 2.4176 63.75 3.19998V45.5998C63.75 46.3821 63.4392 47.1325 62.886 47.6857C62.3327 48.2389 61.5824 48.5498 60.8 48.5498H47.2C47.0541 48.5498 46.9142 48.4918 46.8111 48.3887C46.7079 48.2855 46.65 48.1456 46.65 47.9998C46.65 47.8539 46.7079 47.714 46.8111 47.6108C46.9142 47.5077 47.0541 47.4498 47.2 47.4498H60.8C61.2907 47.4498 61.7612 47.2548 62.1081 46.9079C62.4551 46.561 62.65 46.0904 62.65 45.5998V11.1999V10.9499H62.4H1.6ZM1.35 9.59995V9.84995H1.6H62.4H62.65V9.59995V3.19998C62.65 2.70933 62.4551 2.23878 62.1081 1.89185C61.7612 1.54491 61.2907 1.34999 60.8 1.34999H3.2C2.70935 1.34999 2.2388 1.54491 1.89186 1.89185C1.54492 2.23878 1.35 2.70933 1.35 3.19998V9.59995Z" stroke="#F4F4F5" stroke-width="0.5"/>
<path d="M6.95 5.6C6.95 6.34558 6.34558 6.95 5.6 6.95C4.85442 6.95 4.25 6.34558 4.25 5.6C4.25 4.85442 4.85442 4.25 5.6 4.25C6.34558 4.25 6.95 4.85442 6.95 5.6Z" stroke="#F4F4F5" stroke-width="0.5"/>
<path d="M13.3504 5.6C13.3504 6.34558 12.746 6.95 12.0004 6.95C11.2548 6.95 10.6504 6.34558 10.6504 5.6C10.6504 4.85442 11.2548 4.25 12.0004 4.25C12.746 4.25 13.3504 4.85442 13.3504 5.6Z" stroke="#F4F4F5" stroke-width="0.5"/>
<path d="M19.7508 5.6C19.7508 6.34558 19.1464 6.95 18.4008 6.95C17.6552 6.95 17.0508 6.34558 17.0508 5.6C17.0508 4.85442 17.6552 4.25 18.4008 4.25C19.1464 4.25 19.7508 4.85442 19.7508 5.6Z" stroke="#F4F4F5" stroke-width="0.5"/>
</symbol>

<symbol id="topic-3-icon" xmlns="http://www.w3.org/2000/svg"  viewBox="0 0 64 68" fill="none">
  <path d="M14.7168 0.25H23.4971C26.7845 0.25 29.9368 1.54394 32.2607 3.84643C34.5844 6.14885 35.8895 9.2711 35.8895 12.5262V15.8551H27.1092C23.8218 15.8551 20.6695 14.5612 18.3456 12.2587C16.0218 9.95627 14.7168 6.83402 14.7168 3.57892V0.25Z" stroke="white" stroke-width="0.5"/>
  <path d="M44.2678 21.2236L35.4875 21.2236V17.8947C35.4875 14.6396 36.7925 11.5174 39.1163 9.21494C41.4401 6.91245 44.5925 5.61851 47.8799 5.61851L56.6602 5.61851V8.94742C56.6602 12.2025 55.3551 15.3248 53.0313 17.6272C50.7075 19.9297 47.5552 21.2236 44.2678 21.2236Z" stroke="white" stroke-width="0.5"/>
  <path d="M16.3819 39.6189L26.7485 39.6189H26.8515L26.9246 39.5463L32.4834 34.0242C32.4835 34.0242 32.4836 34.0241 32.4837 34.024C33.2419 33.2726 34.2188 32.7749 35.2775 32.6009L35.4869 32.5665V32.3542V14.3166C35.4869 14.1463 35.5551 13.9826 35.6774 13.8615C35.7996 13.7404 35.966 13.6719 36.14 13.6719C36.3139 13.6719 36.4803 13.7404 36.6026 13.8615C36.7248 13.9826 36.793 14.1463 36.793 14.3166V32.3399V32.5522L37.0024 32.5866C38.0612 32.7606 39.0382 33.2584 39.7965 34.0099L39.9582 33.8468L39.7965 34.0099L47.1905 41.3359L47.3055 41.4499L47.4565 41.3915L58.4084 37.1613L58.4098 37.1607C59.3203 36.8026 60.3337 36.7973 61.2481 37.1459C62.1623 37.4944 62.91 38.1709 63.3429 39.0401L63.3431 39.0404L16.3819 39.6189ZM16.3819 39.6189L16.3817 39.6189M16.3819 39.6189C16.3819 39.6189 16.3818 39.6189 16.3817 39.6189M16.3817 39.6189C15.0033 39.6203 13.6663 40.0846 12.589 40.9355" stroke="white" stroke-width="0.5"/>
</symbol>

<symbol id="topic-4-icon" xmlns="http://www.w3.org/2000/svg"  viewBox="0 0 64 55" fill="none">
<path d="M47.9962 35.8291V36.0791H48.2462H57.8462C61.1066 36.0791 63.75 38.7074 63.75 41.9422V48.8867C63.75 52.1216 61.1066 54.7499 57.8462 54.7499H6.15385C2.89343 54.7499 0.25 52.1216 0.25 48.8867V41.9422C0.25 38.7074 2.89343 36.0791 6.15385 36.0791H45.7846H46.0346V35.8291V25.2166V25.0361L45.8632 24.9793C44.4865 24.5235 43.4746 23.1994 43.4746 21.6466C43.4746 19.7322 45.0842 18.1309 47.0154 18.1309C48.9487 18.1309 50.5562 19.6854 50.5562 21.6466C50.5562 23.1994 49.5442 24.5235 48.1676 24.9793L47.9962 25.0361V25.2166V35.8291ZM48.5946 21.6466C48.5946 20.7734 47.8904 20.0761 47.0154 20.0761C46.0851 20.0761 45.4361 20.7795 45.4361 21.6466C45.4361 22.5198 46.1404 23.217 47.0154 23.217C47.8903 23.217 48.5946 22.5198 48.5946 21.6466ZM57.8462 52.8046C60.0011 52.8046 61.7885 51.0315 61.7885 48.8867V41.9422C61.7885 39.7975 60.0011 38.0243 57.8462 38.0243H6.15385C3.99888 38.0243 2.21154 39.7975 2.21154 41.9422V48.8867C2.21154 51.0315 3.99888 52.8046 6.15385 52.8046H57.8462Z" stroke="#F4F4F5" stroke-width="0.5"/>
<path d="M7.48828 46.3867V44.4414H25.4498V46.3867H7.48828Z" stroke="#F4F4F5" stroke-width="0.5"/>
<path d="M47.2656 46.3867V44.4414H54.0026V46.3867H47.2656Z" stroke="#F4F4F5" stroke-width="0.5"/>
<path d="M48.8773 14.4117C47.7979 13.5111 46.1812 13.5111 45.1018 14.4117L43.7303 13.0493C45.5986 11.3707 48.4283 11.3732 50.2509 13.0472L48.8773 14.4117Z" stroke="#F4F4F5" stroke-width="0.5"/>
<path d="M52.9212 10.3994C49.6215 7.30247 44.4091 7.30169 41.1084 10.3971L39.7396 9.03731C43.8262 5.16287 50.2466 5.16204 54.3342 9.03482L52.9212 10.3994Z" stroke="#F4F4F5" stroke-width="0.5"/>
<path d="M36.9238 6.23907L35.5553 4.87962C41.9577 -1.29321 52.1207 -1.29321 58.5232 4.87962L57.1539 6.23981C51.4929 0.847965 42.5392 0.846436 36.9238 6.23907Z" stroke="#F4F4F5" stroke-width="0.5"/>
</symbol>

<symbol id="topic-5-icon" xmlns="http://www.w3.org/2000/svg"  viewBox="0 0 72 72" fill="none">
  <path d="M40.446 5.0232C40.446 7.67551 38.44 9.7964 36.0004 9.7964C33.5607 9.7964 31.5547 7.67551 31.5547 5.0232C31.5547 2.37089 33.5607 0.25 36.0004 0.25C38.44 0.25 40.446 2.37089 40.446 5.0232Z" stroke="white" stroke-width="0.5"/>
  <path d="M16.1843 52.7429C16.1843 55.3952 14.1783 57.5161 11.7386 57.5161C9.29897 57.5161 7.29297 55.3952 7.29297 52.7429C7.29297 50.0906 9.29897 47.9697 11.7386 47.9697C14.1783 47.9697 16.1843 50.0906 16.1843 52.7429Z" stroke="white" stroke-width="0.5"/>
  <path d="M64.7058 52.7429C64.7058 55.3952 62.6998 57.5161 60.2601 57.5161C57.8205 57.5161 55.8145 55.3952 55.8145 52.7429C55.8145 50.0906 57.8205 47.9697 60.2601 47.9697C62.6998 47.9697 64.7058 50.0906 64.7058 52.7429Z" stroke="white" stroke-width="0.5"/>
  <path d="M46.4585 40.2361L46.4992 40.4362H46.7034H50.6201V44.9594H46.7034H46.4992L46.4585 45.1595C46.1884 46.4851 45.6993 47.7479 45.0147 48.8883L44.9176 49.05L45.0464 49.1877L47.8325 52.1682L44.8534 55.3552L42.0903 52.3994L41.9432 52.242L41.7659 52.3642C40.7027 53.0963 39.5259 53.6176 38.2918 53.9038L38.0983 53.9487V54.1474V58.3546H33.9026V54.1474V53.9487L33.7091 53.9038C32.475 53.6176 31.2983 53.0963 30.2351 52.3642L30.0577 52.242L29.9106 52.3994L27.1476 55.3552L24.1684 52.1682L26.9546 49.1877L27.0833 49.05L26.9863 48.8883C26.3017 47.7479 25.8126 46.4851 25.5425 45.1595L25.5017 44.9594H25.2975H21.3809V40.4362H25.2975H25.5017L25.5425 40.2361C25.8126 38.9105 26.3017 37.6478 26.9863 36.5073L27.0833 36.3456L26.9546 36.2079L24.1684 33.2274L27.1476 30.0404L29.9106 32.9963L30.0577 33.1536L30.2351 33.0315C31.2983 32.2993 32.475 31.778 33.7091 31.4918L33.9026 31.4469V31.2483V27.041H38.0983V31.2483V31.4469L38.2918 31.4918C39.5259 31.778 40.7027 32.2993 41.7659 33.0315L41.9432 33.1536L42.0903 32.9963L44.8534 30.0404L47.8325 33.2274L45.0464 36.2079L44.9176 36.3456L45.0147 36.5073C45.6993 37.6478 46.1884 38.9105 46.4585 40.2361ZM33.2463 47.0778C34.0599 47.6594 35.0184 47.971 36.0005 47.971C37.3178 47.971 38.5775 47.4111 39.5035 46.4205C40.4289 45.4305 40.9461 44.0911 40.9461 42.6978C40.9461 41.6585 40.6581 40.6412 40.1168 39.7746C39.5754 38.9079 38.8042 38.2297 37.8987 37.8284C36.9929 37.4271 35.9952 37.3217 35.0324 37.5266C34.0697 37.7314 33.1879 38.2365 32.4975 38.9751C31.8072 39.7136 31.3389 40.6524 31.1493 41.6721C30.9597 42.6918 31.0568 43.7489 31.4291 44.7104C31.8014 45.6719 32.433 46.4965 33.2463 47.0778Z" stroke="white" stroke-width="0.5"/>
  <path d="M25.5769 20.0924V20.0928C25.5769 20.2538 25.517 20.4051 25.4151 20.5141C25.3137 20.6225 25.1799 20.68 25.0443 20.68C24.9087 20.68 24.7749 20.6225 24.6736 20.5141C24.5717 20.4051 24.5117 20.2539 24.5117 20.0929C24.5133 18.6002 25.0686 17.1723 26.0508 16.1216C27.0324 15.0714 28.3596 14.4841 29.7402 14.4824H42.2616C43.6421 14.4841 44.9693 15.0714 45.951 16.1216C46.9332 17.1723 47.4885 18.6003 47.49 20.0931C47.49 20.254 47.4301 20.4051 47.3282 20.5141C47.2268 20.6225 47.093 20.68 46.9574 20.68C46.8218 20.68 46.688 20.6225 46.5867 20.5141C46.4847 20.4051 46.4248 20.2538 46.4248 20.0928V20.0924C46.4231 18.9219 45.9878 17.7966 45.2095 16.9641C44.4308 16.131 43.3713 15.6587 42.2622 15.6568H42.2618L29.74 15.6568L29.7396 15.6568C28.6305 15.6587 27.571 16.131 26.7922 16.9641C26.014 17.7966 25.5787 18.9219 25.5769 20.0924Z" stroke="white" stroke-width="0.5"/>
  <path d="M1.31522 67.8122V67.8125C1.31522 67.9735 1.2553 68.1248 1.15339 68.2338C1.052 68.3423 0.918225 68.3997 0.782611 68.3997C0.646997 68.3997 0.513218 68.3423 0.411835 68.2338C0.309949 68.1248 0.250029 67.9736 0.25 67.8127C0.251629 66.32 0.806842 64.892 1.78905 63.8413C2.77072 62.7912 4.09791 62.2039 5.47844 62.2021H17.9999C19.3804 62.2039 20.7076 62.7912 21.6893 63.8413C22.6715 64.892 23.2267 66.3201 23.2283 67.8128C23.2283 67.9737 23.1683 68.1249 23.0665 68.2338C22.9651 68.3423 22.8313 68.3997 22.6957 68.3997C22.5601 68.3997 22.4263 68.3423 22.3249 68.2338C22.223 68.1248 22.1631 67.9735 22.1631 67.8125V67.8122C22.1614 66.6416 21.726 65.5164 20.9478 64.6838C20.169 63.8507 19.1096 63.3784 18.0005 63.3765H18L5.47828 63.3765L5.47785 63.3765C4.36876 63.3784 3.30929 63.8507 2.53052 64.6838C1.75228 65.5164 1.31697 66.6416 1.31522 67.8122Z" stroke="white" stroke-width="0.5"/>
  <path d="M49.8387 67.8122V67.8125C49.8387 67.9735 49.7787 68.1248 49.6768 68.2338C49.5754 68.3423 49.4417 68.3997 49.306 68.3997C49.1704 68.3997 49.0367 68.3423 48.9353 68.2338C48.8334 68.1248 48.7735 67.9736 48.7734 67.8127C48.7751 66.32 49.3303 64.892 50.3125 63.8413C51.2942 62.7912 52.6213 62.2039 54.0019 62.2021H66.5233C67.9039 62.2039 69.231 62.7912 70.2127 63.8413C71.1949 64.892 71.7501 66.3199 71.7518 67.8125C71.7518 67.9735 71.6918 68.1248 71.5899 68.2338C71.4885 68.3423 71.3548 68.3997 71.2192 68.3997C71.0835 68.3997 70.9498 68.3423 70.8484 68.2338C70.7465 68.1248 70.6865 67.9735 70.6865 67.8125L70.6865 67.8122C70.6848 66.6416 70.2495 65.5164 69.4712 64.6838C68.6925 63.8507 67.633 63.3784 66.5239 63.3765H66.5235L54.0017 63.3765L54.0013 63.3765C52.8922 63.3784 51.8327 63.8507 51.054 64.6838C50.2757 65.5164 49.8404 66.6416 49.8387 67.8122Z" stroke="white" stroke-width="0.5"/>
  <path d="M9.39199 44.1214H9.39188C9.2587 44.1214 9.12725 44.066 9.02641 43.9612C8.92571 43.8565 8.86421 43.7109 8.85938 43.5541V43.5526V43.5509V43.5493V43.5476V43.5459V43.5443V43.5426V43.5409V43.5392V43.5376V43.5359V43.5342V43.5326V43.5309V43.5292V43.5276V43.5259V43.5242V43.5226V43.5209V43.5192V43.5175V43.5159V43.5142V43.5125V43.5109V43.5092V43.5075V43.5059V43.5042V43.5025V43.5009V43.4992V43.4975V43.4958V43.4942V43.4925V43.4908V43.4892V43.4875V43.4858V43.4841V43.4825V43.4808V43.4791V43.4775V43.4758V43.4741V43.4724V43.4708V43.4691V43.4674V43.4658V43.4641V43.4624V43.4607V43.4591V43.4574V43.4557V43.4541V43.4524V43.4507V43.449V43.4474V43.4457V43.444V43.4423V43.4407V43.439V43.4373V43.4357V43.434V43.4323V43.4306V43.429V43.4273V43.4256V43.4239V43.4223V43.4206V43.4189V43.4172V43.4156V43.4139V43.4122V43.4105V43.4089V43.4072V43.4055V43.4039V43.4022V43.4005V43.3988V43.3972V43.3955V43.3938V43.3921V43.3905V43.3888V43.3871V43.3854V43.3838V43.3821V43.3804V43.3787V43.3771V43.3754V43.3737V43.372V43.3704V43.3687V43.367V43.3653V43.3637V43.362V43.3603V43.3586V43.3569V43.3553V43.3536V43.3519V43.3502V43.3486V43.3469V43.3452V43.3435V43.3419V43.3402V43.3385V43.3368V43.3352V43.3335V43.3318V43.3301V43.3284V43.3268V43.3251V43.3234V43.3217V43.3201V43.3184V43.3167V43.315V43.3134V43.3117V43.31V43.3083V43.3066V43.305V43.3033V43.3016V43.2999V43.2983V43.2966V43.2949V43.2932V43.2915V43.2899V43.2882V43.2865V43.2848V43.2831V43.2815V43.2798V43.2781V43.2764V43.2748V43.2731V43.2714V43.2697V43.268V43.2664V43.2647V43.263V43.2613V43.2596V43.258V43.2563V43.2546V43.2529V43.2513V43.2496V43.2479V43.2462V43.2445V43.2429V43.2412V43.2395V43.2378V43.2361V43.2345V43.2328V43.2311V43.2294V43.2277V43.2261V43.2244V43.2227V43.221V43.2193V43.2177V43.216V43.2143V43.2126V43.2109V43.2093V43.2076V43.2059V43.2042V43.2025V43.2008V43.1992V43.1975V43.1958V43.1941V43.1924V43.1908V43.1891V43.1874V43.1857V43.184V43.1824V43.1807V43.179V43.1773V43.1756V43.174V43.1723V43.1706V43.1689V43.1672V43.1655V43.1639V43.1622V43.1605V43.1588V43.1571V43.1555V43.1538V43.1521V43.1504V43.1487V43.147V43.1454V43.1437V43.142V43.1403V43.1386V43.1369V43.1353V43.1336V43.1319V43.1302V43.1285V43.1269V43.1252V43.1235V43.1218V43.1201V43.1184V43.1168V43.1151V43.1134V43.1117V43.11V43.1083V43.1067V43.105V43.1033V43.1016V43.0999V43.0982V43.0966V43.0949V43.0932V43.0915V43.0898V43.0881V43.0865V43.0848V43.0831V43.0814V43.0797V43.078V43.0764V43.0747V43.073V43.0713V43.0696V43.0679V43.0663V43.0646V43.0629V43.0612V43.0595V43.0578V43.0562V43.0545V43.0528V43.0511V43.0494V43.0477V43.046V43.0444V43.0427V43.041V43.0393V43.0376V43.0359V43.0343V43.0326V43.0309V43.0292V43.0275V43.0258V43.0241V43.0225V43.0208V43.0191V43.0174V43.0157V43.014V43.0124V43.0107V43.009V43.0073V43.0056V43.0039V43.0022V43.0006V42.9989V42.9972V42.9955V42.9938V42.9921V42.9904V42.9888V42.9871V42.9854V42.9837V42.982V42.9803V42.9787V42.977V42.9753V42.9736V42.9719V42.9702V42.9685V42.9669V42.9652V42.9635V42.9618V42.9601V42.9584V42.9567V42.9551V42.9534V42.9517V42.95V42.9483V42.9466V42.9449V42.9433V42.9416V42.9399V42.9382V42.9365V42.9348V42.9331V42.9314V42.9298V42.9281V42.9264V42.9247V42.923V42.9213V42.9196V42.918V42.9163V42.9146V42.9129V42.9112V42.9095V42.9078V42.9062V42.9045V42.9028V42.9011V42.8994V42.8977V42.896V42.8944V42.8927V42.891V42.8893V42.8876V42.8859V42.8842V42.8825V42.8809V42.8792V42.8775V42.8758V42.8741V42.8724V42.8707V42.8691V42.8674V42.8657V42.864V42.8623V42.8606V42.8589V42.8572V42.8556V42.8539V42.8522V42.8505V42.8488V42.8471V42.8454V42.8438V42.8421V42.8404V42.8387V42.837V42.8353V42.8336V42.8319V42.8303V42.8286V42.8269V42.8252V42.8235V42.8218V42.8201V42.8184V42.8168V42.8151V42.8134V42.8117V42.81V42.8083V42.8066V42.8049V42.8033V42.8016V42.7999V42.7982V42.7965V42.7948V42.7931V42.7915V42.7898V42.7881V42.7864V42.7847V42.783V42.7813V42.7796V42.778V42.7763V42.7746V42.7729V42.7712V42.7695V42.7678V42.7661V42.7645V42.7628V42.7611V42.7594V42.7577V42.756V42.7543V42.7526V42.751V42.7493V42.7476V42.7459V42.7442V42.7425V42.7408V42.7391V42.7375V42.7358V42.7341V42.7324V42.7307V42.729V42.7273V42.7256V42.724V42.7223V42.7206V42.7189V42.7172V42.7155V42.7138V42.7121V42.7105V42.7088V42.7071V42.7054V42.7037V42.702V42.7003V42.6986V42.697V42.6969C8.85843 37.9349 9.95149 33.2462 12.0416 29.0437C14.1317 24.8412 17.1544 21.2543 20.8422 18.5975L20.8423 18.5976L20.8484 18.5929C20.9064 18.5484 20.9711 18.5174 21.0385 18.501C21.1059 18.4847 21.1755 18.4829 21.2434 18.4959C21.3113 18.5088 21.377 18.5364 21.4365 18.5778C21.4961 18.6192 21.5484 18.6738 21.5897 18.7391C21.6311 18.8045 21.6602 18.8788 21.6748 18.9578C21.6894 19.0368 21.689 19.1183 21.6736 19.1972C21.6583 19.2761 21.6285 19.35 21.5865 19.4149C21.5447 19.4797 21.4919 19.5336 21.432 19.5744L21.4319 19.5743L21.4263 19.5783C17.8835 22.1316 14.983 25.5759 12.9786 29.6069C10.9742 33.6378 9.92685 38.1329 9.92773 42.697C9.92773 42.697 9.92773 42.697 9.92773 42.697V43.5107H9.92764L9.92782 43.5173C9.92992 43.5967 9.91735 43.6754 9.89113 43.749C9.86491 43.8225 9.82581 43.8887 9.7768 43.9441C9.72781 43.9995 9.66993 44.0431 9.60701 44.0732C9.54519 44.1028 9.47936 44.1189 9.41297 44.1214H9.39199Z" stroke="white" stroke-width="0.5"/>
  <path d="M45.2089 68.7887L45.2166 68.7857L45.224 68.7821C45.2892 68.7508 45.3589 68.7345 45.4291 68.7334C45.4992 68.7324 45.5693 68.7467 45.6351 68.776C45.701 68.8054 45.7618 68.8494 45.8133 68.9064C45.8648 68.9633 45.9056 69.0319 45.9326 69.1084C45.9595 69.1848 45.9717 69.2669 45.968 69.3493C45.9643 69.4318 45.945 69.512 45.9116 69.5849C45.8782 69.6577 45.8317 69.7214 45.7758 69.7725C45.7201 69.8235 45.6561 69.8608 45.5884 69.8832L45.5808 69.8857L45.5735 69.8886C39.4015 72.3696 32.5984 72.3696 26.4264 69.8886L26.4191 69.8857L26.4115 69.8832C26.3438 69.8608 26.2798 69.8235 26.2241 69.7725C26.1682 69.7214 26.1217 69.6577 26.0883 69.5849C26.0549 69.512 26.0356 69.4318 26.0319 69.3493C26.0282 69.2669 26.0404 69.1848 26.0673 69.1084C26.0942 69.0319 26.1351 68.9633 26.1866 68.9064C26.2381 68.8494 26.2989 68.8054 26.3648 68.776C26.4306 68.7467 26.5007 68.7324 26.5708 68.7334C26.641 68.7345 26.7107 68.7508 26.7759 68.7821L26.7833 68.7857L26.791 68.7887C32.7282 71.1703 39.2717 71.1703 45.2089 68.7887Z" stroke="white" stroke-width="0.5"/>
  <path d="M62.076 43.5179L62.0761 43.5179V43.5113V43.5097V43.5081V43.5066V43.505V43.5034V43.5018V43.5003V43.4987V43.4971V43.4956V43.494V43.4924V43.4908V43.4893V43.4877V43.4861V43.4846V43.483V43.4814V43.4798V43.4783V43.4767V43.4751V43.4735V43.472V43.4704V43.4688V43.4673V43.4657V43.4641V43.4625V43.461V43.4594V43.4578V43.4562V43.4547V43.4531V43.4515V43.4499V43.4484V43.4468V43.4452V43.4436V43.4421V43.4405V43.4389V43.4373V43.4357V43.4342V43.4326V43.431V43.4294V43.4279V43.4263V43.4247V43.4231V43.4216V43.42V43.4184V43.4168V43.4152V43.4137V43.4121V43.4105V43.4089V43.4073V43.4058V43.4042V43.4026V43.401V43.3995V43.3979V43.3963V43.3947V43.3931V43.3916V43.39V43.3884V43.3868V43.3852V43.3836V43.3821V43.3805V43.3789V43.3773V43.3757V43.3742V43.3726V43.371V43.3694V43.3678V43.3663V43.3647V43.3631V43.3615V43.3599V43.3583V43.3568V43.3552V43.3536V43.352V43.3504V43.3488V43.3473V43.3457V43.3441V43.3425V43.3409V43.3393V43.3378V43.3362V43.3346V43.333V43.3314V43.3298V43.3283V43.3267V43.3251V43.3235V43.3219V43.3203V43.3187V43.3172V43.3156V43.314V43.3124V43.3108V43.3092V43.3077V43.3061V43.3045V43.3029V43.3013V43.2997V43.2981V43.2965V43.295V43.2934V43.2918V43.2902V43.2886V43.287V43.2854V43.2839V43.2823V43.2807V43.2791V43.2775V43.2759V43.2743V43.2727V43.2712V43.2696V43.268V43.2664V43.2648V43.2632V43.2616V43.26V43.2584V43.2569V43.2553V43.2537V43.2521V43.2505V43.2489V43.2473V43.2457V43.2441V43.2426V43.241V43.2394V43.2378V43.2362V43.2346V43.233V43.2314V43.2298V43.2283V43.2267V43.2251V43.2235V43.2219V43.2203V43.2187V43.2171V43.2155V43.2139V43.2123V43.2108V43.2092V43.2076V43.206V43.2044V43.2028V43.2012V43.1996V43.198V43.1964V43.1948V43.1933V43.1917V43.1901V43.1885V43.1869V43.1853V43.1837V43.1821V43.1805V43.1789V43.1773V43.1757V43.1742V43.1726V43.171V43.1694V43.1678V43.1662V43.1646V43.163V43.1614V43.1598V43.1582V43.1566V43.155V43.1535V43.1519V43.1503V43.1487V43.1471V43.1455V43.1439V43.1423V43.1407V43.1391V43.1375V43.1359V43.1343V43.1327V43.1311V43.1296V43.128V43.1264V43.1248V43.1232V43.1216V43.12V43.1184V43.1168V43.1152V43.1136V43.112V43.1104V43.1088V43.1072V43.1056V43.104V43.1025V43.1009V43.0993V43.0977V43.0961V43.0945V43.0929V43.0913V43.0897V43.0881V43.0865V43.0849V43.0833V43.0817V43.0801V43.0785V43.0769V43.0753V43.0737V43.0722V43.0706V43.069V43.0674V43.0658V43.0642V43.0626V43.061V43.0594V43.0578V43.0562V43.0546V43.053V43.0514V43.0498V43.0482V43.0466V43.045V43.0434V43.0418V43.0402V43.0387V43.0371V43.0355V43.0339V43.0323V43.0307V43.0291V43.0275V43.0259V43.0243V43.0227V43.0211V43.0195V43.0179V43.0163V43.0147V43.0131V43.0115V43.0099V43.0083V43.0067V43.0051V43.0035V43.002V43.0004V42.9988V42.9972V42.9956V42.994V42.9924V42.9908V42.9892V42.9876V42.986V42.9844V42.9828V42.9812V42.9796V42.978V42.9764V42.9748V42.9732V42.9716V42.97V42.9684V42.9668V42.9652V42.9637V42.9621V42.9605V42.9589V42.9573V42.9557V42.9541V42.9525V42.9509V42.9493V42.9477V42.9461V42.9445V42.9429V42.9413V42.9397V42.9381V42.9365V42.9349V42.9333V42.9317V42.9301V42.9285V42.9269V42.9254V42.9238V42.9222V42.9206V42.919V42.9174V42.9158V42.9142V42.9126V42.911V42.9094V42.9078V42.9062V42.9046V42.903V42.9014V42.8998V42.8982V42.8966V42.895V42.8934V42.8918V42.8902V42.8887V42.8871V42.8855V42.8839V42.8823V42.8807V42.8791V42.8775V42.8759V42.8743V42.8727V42.8711V42.8695V42.8679V42.8663V42.8647V42.8631V42.8615V42.8599V42.8583V42.8568V42.8552V42.8536V42.852V42.8504V42.8488V42.8472V42.8456V42.844V42.8424V42.8408V42.8392V42.8376V42.836V42.8344V42.8328V42.8312V42.8296V42.8281V42.8265V42.8249V42.8233V42.8217V42.8201V42.8185V42.8169V42.8153V42.8137V42.8121V42.8105V42.8089V42.8073V42.8057V42.8041V42.8026V42.801V42.7994V42.7978V42.7962V42.7946V42.793V42.7914V42.7898V42.7882V42.7866V42.785V42.7834V42.7818V42.7802V42.7787V42.7771V42.7755V42.7739V42.7723V42.7707V42.7691V42.7675V42.7659V42.7643V42.7627V42.7611V42.7595V42.758V42.7564V42.7548V42.7532V42.7516V42.75V42.7484V42.7468V42.7452V42.7436V42.742V42.7404V42.7389V42.7373V42.7357V42.7341V42.7325V42.7309V42.7293V42.7277V42.7261V42.7245V42.7229V42.7214V42.7198V42.7182V42.7166V42.715V42.7134V42.7118V42.7102V42.7086V42.707V42.7055V42.7039V42.7023V42.7007V42.6991V42.6976C62.0761 42.6975 62.0761 42.6975 62.0761 42.6975C62.077 38.1334 61.0296 33.6384 59.0252 29.6074C57.0215 25.5777 54.1223 22.1344 50.581 19.5813C50.4694 19.4944 50.3898 19.3615 50.3642 19.2077C50.3384 19.0526 50.3705 18.894 50.4511 18.7664C50.5315 18.6394 50.6518 18.5554 50.7831 18.5262C50.9129 18.4973 51.0492 18.5227 51.1647 18.6003C54.8505 21.2572 57.8715 24.8434 59.9605 29.0447C62.0501 33.2473 63.1426 37.9357 63.1414 42.6974V42.6975V43.5546C63.1365 43.711 63.0754 43.8563 62.9751 43.9609C62.8748 44.0656 62.744 44.1213 62.6114 44.1219C62.6112 44.1219 62.6111 44.1219 62.6109 44.1219L62.5908 44.1219C62.5245 44.1195 62.4587 44.1033 62.3969 44.0738C62.3339 44.0437 62.2761 44.0001 62.2271 43.9447C62.1781 43.8892 62.139 43.823 62.1127 43.7495C62.0865 43.676 62.0739 43.5972 62.076 43.5179Z" stroke="white" stroke-width="0.5"/>
</symbol>

<symbol id="topic-6-icon" xmlns="http://www.w3.org/2000/svg"  viewBox="0 0 72 72" fill="none">
<path d="M20.3672 39.625H28.3378V45.875H20.3672V39.625Z" stroke="white" stroke-width="0.5"/>
<path d="M34.1328 32.875H41.0446V45.8749H34.1328V32.875Z" stroke="white" stroke-width="0.5"/>
<path d="M46.8379 23.875H53.7497V45.8749H46.8379V23.875Z" stroke="white" stroke-width="0.5"/>
<path d="M36.5669 5.12412C36.4139 5.2867 36.2097 5.37497 36.0002 5.37497C35.7908 5.37497 35.5866 5.2867 35.4336 5.12412C35.2801 4.96103 35.1914 4.73676 35.1914 4.49998V1.12499C35.1914 0.888208 35.2801 0.663941 35.4336 0.500847C35.5866 0.338267 35.7908 0.25 36.0002 0.25C36.2097 0.25 36.4139 0.338267 36.5669 0.500847C36.7204 0.663941 36.8091 0.888208 36.8091 1.12499V4.49998C36.8091 4.73676 36.7204 4.96103 36.5669 5.12412Z" stroke="white" stroke-width="0.5"/>
<path d="M34.7996 67.0843L34.9651 67.0249V66.849V58.1537V57.9037H34.7151H3.85798C3.58952 57.9037 3.32795 57.789 3.13204 57.578C2.93555 57.3664 2.82227 57.0757 2.82227 56.7691V11.077C2.82227 10.7703 2.93555 10.4796 3.13204 10.268C3.32795 10.0571 3.58952 9.94238 3.85798 9.94238C4.12644 9.94238 4.38801 10.0571 4.58392 10.268C4.78041 10.4796 4.89369 10.7703 4.89369 11.077V55.3845V55.6345H5.14369H66.858H67.108V55.3845V37.3845C67.108 37.0779 67.2213 36.7872 67.4178 36.5756C67.6137 36.3646 67.8752 36.2499 68.1437 36.2499C68.4122 36.2499 68.6737 36.3646 68.8696 36.5756C69.0661 36.7872 69.1794 37.0779 69.1794 37.3845V56.7691C69.1794 57.0757 69.0661 57.3664 68.8696 57.578C68.6737 57.789 68.4122 57.9037 68.1437 57.9037H37.2866H37.0366V58.1537V66.849V67.0249L37.2021 67.0843L44.0364 69.5376C44.266 69.6206 44.4652 69.7905 44.5949 70.0219C44.7247 70.2536 44.7748 70.5295 44.7341 70.7996C44.6935 71.0697 44.5655 71.3118 44.3774 71.4845C44.1898 71.6569 43.9547 71.7492 43.7145 71.7498H43.7143C43.6061 71.7501 43.4983 71.7311 43.3952 71.6931L43.3932 71.6924L36.0852 69.0727L36.0008 69.0425L35.9165 69.0727L28.6085 71.6924L28.6065 71.6931C28.5034 71.7311 28.3956 71.7501 28.2874 71.7498H28.2872C28.047 71.7492 27.8119 71.6569 27.6243 71.4845C27.4362 71.3118 27.3082 71.0697 27.2675 70.7996C27.2269 70.5295 27.2769 70.2536 27.4068 70.0219C27.5365 69.7905 27.7357 69.6206 27.9653 69.5376L34.7996 67.0843Z" stroke="white" stroke-width="0.5"/>
<path d="M15.1789 45.6913V45.9413H15.4289H57.8574C58.1259 45.9413 58.3874 46.056 58.5834 46.267C58.7798 46.4786 58.8931 46.7693 58.8931 47.076C58.8931 47.3826 58.7798 47.6733 58.5834 47.8849C58.3874 48.0959 58.1259 48.2106 57.8574 48.2106H14.1431C13.8747 48.2106 13.6131 48.0959 13.4172 47.8849C13.2207 47.6733 13.1074 47.3826 13.1074 47.076V20.7684C13.1074 20.4618 13.2207 20.1711 13.4172 19.9594C13.6131 19.7485 13.8747 19.6338 14.1431 19.6338C14.4116 19.6338 14.6732 19.7485 14.8691 19.9594C15.0656 20.1711 15.1789 20.4618 15.1789 20.7684V45.6913Z" stroke="white" stroke-width="0.5"/>
<path d="M0.25 5.78809H71.75V10.8265H0.25V5.78809Z" stroke="white" stroke-width="0.5"/>
</symbol>


<symbol id="topic-7-icon" xmlns="http://www.w3.org/2000/svg"  viewBox="0 0 72 72" fill="none">
  <path d="M14.875 32.875H21.1249V38H14.875V32.875Z" stroke="white" stroke-width="0.5"/>
  <path d="M26.125 27.25H33.4998V37.9999H26.125V27.25Z" stroke="white" stroke-width="0.5"/>
  <path d="M38.5 19.375H44.7499V37.9999H38.5V19.375Z" stroke="white" stroke-width="0.5"/>
  <path d="M70.8764 66.643L70.8764 66.6431C71.1542 66.9207 71.3745 67.2504 71.5249 67.6133C71.6752 67.9762 71.7526 68.3651 71.7526 68.7579C71.7526 69.1507 71.6752 69.5396 71.5249 69.9025C71.3745 70.2654 71.1542 70.5951 70.8764 70.8727L70.8764 70.8728C70.5987 71.1506 70.269 71.3709 69.9061 71.5213C69.5433 71.6716 69.1543 71.749 68.7616 71.749C68.3688 71.749 67.9799 71.6716 67.617 71.5213C67.2541 71.3709 66.9244 71.1506 66.6468 70.8728L66.6467 70.8728L51.7512 55.977L51.7512 55.977C51.4734 55.6993 51.2531 55.3696 51.1027 55.0068C50.9524 54.6439 50.875 54.2549 50.875 53.8622C50.875 53.4694 50.9524 53.0805 51.1027 52.7176C51.2531 52.3547 51.4734 52.025 51.7512 51.7473L51.7512 51.7473C52.0289 51.4695 52.3586 51.2491 52.7215 51.0988C53.0844 50.9485 53.4733 50.8711 53.8661 50.8711C54.2588 50.8711 54.6477 50.9485 55.0106 51.0988C55.3735 51.2491 55.7032 51.4695 55.9809 51.7473L55.9809 51.7473L70.8764 66.643Z" stroke="white" stroke-width="0.5"/>
  <path d="M28.6552 2.05082C22.5005 2.0512 16.5362 4.18561 11.7787 8.09042C7.02113 11.9953 3.76465 17.429 2.56416 23.4658C1.36367 29.5025 2.29343 35.7688 5.19504 41.1968C8.09665 46.6249 12.7906 50.8789 18.4771 53.2341C24.1635 55.5892 30.4906 55.8998 36.3804 54.1129C42.2702 52.326 47.3582 48.5521 50.7774 43.4344C54.1967 38.3166 55.7357 32.1715 55.1322 26.0462C54.5287 19.9209 51.8201 14.1944 47.4678 9.84232C45.0031 7.3642 42.0713 5.39958 38.8421 4.06216C35.6129 2.7247 32.1504 2.04107 28.6552 2.05082ZM28.6552 2.05082C28.6553 2.05082 28.6555 2.05082 28.6556 2.05082L28.6556 2.30082L28.6549 2.05083C28.655 2.05083 28.6551 2.05082 28.6552 2.05082ZM28.6563 57.0504H28.6555C22.0849 57.0517 15.7171 54.7746 10.6371 50.6071C5.5572 46.4396 2.07949 40.6395 0.796611 34.1952C-0.486272 27.7509 0.505041 21.0611 3.60164 15.2658C6.69824 9.47054 11.7085 4.92829 17.7787 2.41308C23.8489 -0.102127 30.6035 -0.434656 36.8914 1.47215C43.1793 3.37895 48.6115 7.40711 52.2623 12.8702C55.9132 18.3333 57.5567 24.8934 56.913 31.4325C56.2693 37.9717 53.3781 44.0853 48.7321 48.7316L48.7316 48.7322C46.102 51.3778 42.9736 53.4753 39.5275 54.9032C36.0815 56.331 32.3864 57.0609 28.6563 57.0504Z" stroke="white" stroke-width="0.5"/>
  <path d="M11.2174 37.8202V38.0702H11.4674H46.9875C47.2251 38.0702 47.4529 38.1645 47.6209 38.3325C47.7889 38.5005 47.8833 38.7284 47.8833 38.966C47.8833 39.2036 47.7889 39.4314 47.6209 39.5994C47.4529 39.7674 47.2251 39.8618 46.9875 39.8618H10.3216C10.084 39.8618 9.85613 39.7674 9.68813 39.5994C9.52015 39.4314 9.42578 39.2036 9.42578 38.966V18.3411C9.42578 18.1035 9.52015 17.8757 9.68813 17.7077C9.85613 17.5397 10.084 17.4453 10.3216 17.4453C10.5592 17.4453 10.7871 17.5397 10.955 17.7077C11.123 17.8757 11.2174 18.1035 11.2174 18.3411V37.8202Z" stroke="white" stroke-width="0.5"/>
</symbol>



<symbol id="topic-8-icon" xmlns="http://www.w3.org/2000/svg"  viewBox="0 0 72 72" fill="none">
  <path d="M46.2857 25.7686H54.2643V28.2527C54.2643 30.5931 53.2153 32.8448 51.3359 34.5101C49.4555 36.1762 46.8993 37.1166 44.2286 37.1166H36.25V34.6324C36.25 32.292 37.299 30.0404 39.1784 28.3751C41.0588 26.7089 43.615 25.7686 46.2857 25.7686Z" stroke="white" stroke-width="0.5"/>
  <path d="M17.7344 25.7686H25.7129C27.0348 25.7686 28.3431 25.9993 29.563 26.447C30.7829 26.8947 31.8895 27.5503 32.8203 28.3751C33.751 29.1998 34.4874 30.1772 34.9892 31.2506C35.491 32.3238 35.7487 33.4729 35.7487 34.6324V37.1166H27.7701C25.0993 37.1166 22.5432 36.1762 20.6628 34.5101C18.7834 32.8448 17.7344 30.5931 17.7344 28.2527V25.7686Z" stroke="white" stroke-width="0.5"/>
  <path d="M48.0939 10.9367C48.0939 16.8112 42.709 21.6233 36.0011 21.6233C29.2931 21.6233 23.9082 16.8112 23.9082 10.9367C23.9082 5.06214 29.2931 0.25 36.0011 0.25C42.709 0.25 48.0939 5.06214 48.0939 10.9367Z" stroke="white" stroke-width="0.5"/>
  <path d="M51.4282 60.8136H51.1782V61.0636V64.7091V64.9591H51.4282H69.9425H70.1925V64.7091V61.0636V60.8136H69.9425H51.4282ZM69.9425 59.4908H70.1925V59.2408V56.5066C70.1925 56.1882 70.0495 55.8899 69.8071 55.675C69.5656 55.4611 69.2439 55.3452 68.914 55.3452H52.4568C52.1268 55.3452 51.8052 55.4611 51.5637 55.675C51.3213 55.8899 51.1782 56.1882 51.1782 56.5066V59.2408V59.4908H51.4282H69.9425ZM51.4282 66.2819H51.1782V66.5319V69.2661C51.1782 69.5845 51.3213 69.8828 51.5637 70.0976C51.8052 70.3116 52.1268 70.4274 52.4568 70.4274H68.914C69.2439 70.4274 69.5656 70.3116 69.8071 70.0976C70.0495 69.8828 70.1925 69.5845 70.1925 69.2661V66.5319V66.2819H69.9425H51.4282ZM52.4568 54.0225H68.914C69.6751 54.0225 70.4 54.2907 70.9301 54.7604C71.4592 55.2292 71.7497 55.8582 71.7497 56.5066V69.2661C71.7497 69.9145 71.4592 70.5434 70.9301 71.0123C70.4 71.482 69.6751 71.7502 68.914 71.7502H52.4568C51.6956 71.7502 50.9708 71.482 50.4407 71.0123C49.9115 70.5434 49.6211 69.9145 49.6211 69.2661V56.5066C49.6211 55.8582 49.9115 55.2292 50.4407 54.7604C50.9708 54.2907 51.6956 54.0225 52.4568 54.0225Z" stroke="white" stroke-width="0.5"/>
  <path d="M36.7784 42.8354V43.0854H37.0284H44.2284C44.9896 43.0854 45.7144 43.3536 46.2445 43.8233C46.7737 44.2922 47.0641 44.9212 47.0641 45.5696V69.2657C47.0641 69.9141 46.7737 70.5431 46.2445 71.0119C45.7144 71.4816 44.9896 71.7498 44.2284 71.7498H27.7713C27.0101 71.7498 26.2853 71.4816 25.7551 71.0119C25.226 70.5431 24.9355 69.9141 24.9355 69.2657V45.5696C24.9355 44.9212 25.226 44.2922 25.7551 43.8233C26.2853 43.3536 27.0101 43.0854 27.7713 43.0854H34.9713H35.2213V42.8354V24.6077C35.2213 24.4427 35.295 24.2773 35.4383 24.1503C35.5826 24.0224 35.7842 23.9463 35.9998 23.9463C36.2154 23.9463 36.417 24.0224 36.5613 24.1503C36.7047 24.2773 36.7784 24.4427 36.7784 24.6077V42.8354ZM26.4927 53.7721V54.0221H26.7427H45.257H45.507V53.7721V50.1265V49.8765H45.257H26.7427H26.4927V50.1265V53.7721ZM45.507 55.5949V55.3449H45.257H26.7427H26.4927V55.5949V59.2404V59.4904H26.7427H45.257H45.507V59.2404V55.5949ZM26.7427 60.8132H26.4927V61.0632V64.7087V64.9587H26.7427H45.257H45.507V64.7087V61.0632V60.8132H45.257H26.7427ZM45.257 48.5538H45.507V48.3038V45.5696C45.507 45.2512 45.3639 44.9528 45.1215 44.738C44.88 44.5241 44.5584 44.4082 44.2284 44.4082H27.7713C27.4413 44.4082 27.1196 44.5241 26.8782 44.738C26.6357 44.9528 26.4927 45.2512 26.4927 45.5696V48.3038V48.5538H26.7427H45.257ZM26.7427 66.2815H26.4927V66.5315V69.2657C26.4927 69.5841 26.6357 69.8824 26.8782 70.0973C27.1196 70.3112 27.4413 70.4271 27.7713 70.4271H44.2284C44.5584 70.4271 44.88 70.3112 45.1215 70.0973C45.3639 69.8824 45.507 69.5841 45.507 69.2657V66.5315V66.2815H45.257H26.7427Z" stroke="white" stroke-width="0.5"/>
  <path d="M2.05714 55.3448H1.80714V55.5948V59.2404V59.4904H2.05714H20.5714H20.8214V59.2404V55.5948V55.3448H20.5714H2.05714ZM2.05714 60.8131H1.80714V61.0631V64.7087V64.9587H2.05714H20.5714H20.8214V64.7087V61.0631V60.8131H20.5714H2.05714ZM20.5714 54.022H20.8214V53.772V51.0379C20.8214 50.7194 20.6784 50.4211 20.436 50.2063C20.1945 49.9923 19.8728 49.8765 19.5429 49.8765H3.08571C2.75574 49.8765 2.43407 49.9923 2.19261 50.2063C1.95017 50.4211 1.80714 50.7194 1.80714 51.0379V53.772V54.022H2.05714H20.5714ZM2.05714 66.2815H1.80714V66.5315V69.2656C1.80714 69.5841 1.95017 69.8824 2.19261 70.0972C2.43407 70.3112 2.75574 70.427 3.08571 70.427H19.5429C19.8728 70.427 20.1945 70.3112 20.436 70.0972C20.6784 69.8824 20.8214 69.5841 20.8214 69.2656V66.5315V66.2815H20.5714H2.05714ZM3.08571 48.5537H19.5429C20.304 48.5537 21.0289 48.8219 21.559 49.2916C22.0881 49.7605 22.3786 50.3895 22.3786 51.0379V69.2656C22.3786 69.914 22.0881 70.543 21.559 71.0119C21.0289 71.4816 20.304 71.7498 19.5429 71.7498H3.08571C2.32453 71.7498 1.5997 71.4816 1.06958 71.0119C0.54044 70.543 0.25 69.914 0.25 69.2656V51.0379C0.25 50.3895 0.54044 49.7605 1.06958 49.2916C1.5997 48.8219 2.32453 48.5537 3.08571 48.5537Z" stroke="white" stroke-width="0.5"/>
  <path d="M35.2217 17.3163V17.0663H34.9717H34.4286C33.5387 17.0663 32.6904 16.7527 32.0692 16.2023C31.449 15.6528 31.1074 14.9144 31.1074 14.1519C31.1074 13.9869 31.1811 13.8216 31.3245 13.6946C31.4688 13.5667 31.6704 13.4905 31.886 13.4905C32.1016 13.4905 32.3032 13.5667 32.4475 13.6946C32.5909 13.8216 32.6646 13.9869 32.6646 14.1519C32.6646 14.5845 32.8587 14.9922 33.1922 15.2877C33.5247 15.5823 33.9699 15.7435 34.4286 15.7435H34.9717H35.2217V15.4935V11.4834V11.321L35.0733 11.255L32.9339 10.3035L32.9337 10.3034C32.2621 10.0052 31.7303 9.51781 31.4182 8.92616C31.1066 8.33544 31.03 7.67182 31.1982 7.04046C31.3666 6.40835 31.7725 5.83859 32.3582 5.42737C32.9444 5.01587 33.6739 4.78929 34.4288 4.7886H34.9717H35.2217V4.5386V3.62721C35.2217 3.46224 35.2954 3.29693 35.4388 3.1699C35.5831 3.042 35.7847 2.96582 36.0003 2.96582C36.2159 2.96582 36.4174 3.042 36.5618 3.1699C36.7052 3.29693 36.7789 3.46224 36.7789 3.62721V4.5386V4.7886H37.0289H37.5719C38.4619 4.7886 39.3102 5.10214 39.9314 5.65254C40.5515 6.20207 40.8931 6.94045 40.8931 7.70295C40.8931 7.86794 40.8194 8.03329 40.6761 8.16031C40.5317 8.28819 40.3302 8.36434 40.1146 8.36434C39.899 8.36434 39.6974 8.28819 39.5531 8.16031C39.4097 8.03329 39.336 7.86794 39.336 7.70295C39.336 7.27042 39.1418 6.86269 38.8083 6.5672C38.4758 6.27259 38.0307 6.11137 37.5719 6.11137H37.0289H36.7789V6.36137V10.3715V10.5339L36.9273 10.5999L39.0667 11.5514L39.0668 11.5515C39.7384 11.8497 40.2703 12.3371 40.5823 12.9287C40.8939 13.5194 40.9705 14.1831 40.8023 14.8145C40.634 15.4466 40.2281 16.0163 39.6423 16.4275C39.0562 16.839 38.3267 17.0656 37.5717 17.0663H37.0289H36.7789V17.3163V18.2277C36.7789 18.3926 36.7051 18.558 36.5618 18.685C36.4175 18.8129 36.2159 18.889 36.0003 18.889C35.7847 18.889 35.5831 18.8129 35.4388 18.685C35.2954 18.558 35.2217 18.3926 35.2217 18.2277V17.3163ZM35.2217 6.37962V6.12962H34.9717H34.4305C34.036 6.12397 33.6481 6.23765 33.3311 6.45612C33.0131 6.67524 32.7829 6.98881 32.6871 7.34894C32.5911 7.70985 32.638 8.08842 32.8171 8.41957C32.9955 8.74944 33.292 9.00898 33.6514 9.16132L34.8725 9.68954L35.2217 9.84062V9.46009V6.37962ZM37.1413 12.1949L36.7927 12.0425L36.7912 12.4229L36.7789 15.5144L36.7778 15.7654H37.0289H37.5948C37.9893 15.771 38.3771 15.6574 38.6942 15.4389C39.0122 15.2198 39.2423 14.9062 39.3381 14.5461C39.4341 14.1852 39.3872 13.8065 39.2082 13.4754C39.0298 13.1456 38.7334 12.8862 38.3743 12.7339L37.1413 12.1949Z" stroke="white" stroke-width="0.5"/>
</symbol>

<symbol id="topic-9-icon" xmlns="http://www.w3.org/2000/svg"  viewBox="0 0 72 46" fill="none">
  <path d="M47.49 27.3916C47.49 35.0782 42.3054 41.2286 36.0008 41.2286C29.6963 41.2286 24.5117 35.0782 24.5117 27.3916C24.5117 19.7051 29.6963 13.5547 36.0008 13.5547C42.3054 13.5547 47.49 19.7051 47.49 27.3916Z" stroke="white" stroke-width="0.5"/>
  <path d="M71.2174 9.64062H0.782609C0.641353 9.64062 0.505881 9.69674 0.405997 9.79662C0.306113 9.89651 0.25 10.032 0.25 10.1732V44.608C0.25 44.7493 0.306112 44.8847 0.405999 44.9846M71.2174 9.64062L0.405999 44.9846M71.2174 9.64062C71.3586 9.64062 71.4941 9.69674 71.594 9.79662C71.6939 9.89651 71.75 10.032 71.75 10.1732V44.608C71.75 44.7493 71.6939 44.8847 71.594 44.9846C71.4941 45.0845 71.3586 45.1406 71.2174 45.1406H0.782609C0.641353 45.1406 0.505881 45.0845 0.405999 44.9846M71.2174 9.64062L0.22922 45.1614L0.405999 44.9846M70.4348 44.0754H70.6848V43.8254V10.9558V10.7058H70.4348H1.56522H1.31522V10.9558V43.8254V44.0754H1.56522H70.4348Z" stroke="white" stroke-width="0.5"/>
  <path d="M5.47832 35.75H5.47792C5.33667 35.75 5.20119 35.6938 5.10131 35.594C5.00143 35.4941 4.94531 35.3586 4.94531 35.2173V19.5652C4.94531 19.4239 5.00143 19.2884 5.10131 19.1886C5.20119 19.0887 5.33667 19.0326 5.47792 19.0326L5.47832 19.0326C6.58178 19.0308 7.63954 18.5917 8.41981 17.8114C9.20007 17.0311 9.6392 15.9734 9.64096 14.8699V14.8695C9.64096 14.7283 9.69708 14.5928 9.79696 14.4929C9.89685 14.393 10.0323 14.3369 10.1736 14.3369H25.0431C25.1844 14.3369 25.3199 14.393 25.4198 14.4929C25.5196 14.5928 25.5757 14.7283 25.5757 14.8695C25.5757 15.0108 25.5196 15.1462 25.4198 15.2461C25.3199 15.346 25.1844 15.4021 25.0431 15.4021H10.8998H10.6837L10.6525 15.616C10.4894 16.7324 9.97032 17.7663 9.17253 18.5641C8.37474 19.3619 7.34078 19.881 6.22439 20.0441L6.01053 20.0753V20.2914V34.4911V34.7072L6.22439 34.7385C7.34078 34.9016 8.37473 35.4206 9.17253 36.2184C9.97032 37.0162 10.4894 38.0501 10.6525 39.1665L10.6837 39.3804H10.8998H25.0431C25.1844 39.3804 25.3199 39.4365 25.4198 39.5364C25.5196 39.6363 25.5757 39.7717 25.5757 39.913C25.5757 40.0543 25.5196 40.1897 25.4198 40.2896C25.3199 40.3895 25.1844 40.4456 25.0431 40.4456H10.1736C10.0323 40.4456 9.89685 40.3895 9.79697 40.2896C9.69708 40.1897 9.64096 40.0543 9.64097 39.913L9.64096 39.9126C9.6392 38.8091 9.20007 37.7514 8.41981 36.9711C7.63954 36.1908 6.58178 35.7517 5.47832 35.75Z" stroke="white" stroke-width="0.5"/>
  <path d="M61.0997 39.3804H61.3159L61.3471 39.1665C61.5102 38.0501 62.0293 37.0162 62.8271 36.2184C63.6248 35.4206 64.6588 34.9016 65.7752 34.7385L65.989 34.7072V34.4911V20.2914V20.0753L65.7752 20.0441C64.6588 19.881 63.6248 19.3619 62.8271 18.5641C62.0293 17.7663 61.5102 16.7324 61.3471 15.616L61.3159 15.4021H61.0997H46.9564C46.8152 15.4021 46.6797 15.346 46.5798 15.2461C46.4799 15.1462 46.4238 15.0108 46.4238 14.8695C46.4238 14.7283 46.4799 14.5928 46.5798 14.4929C46.6797 14.393 46.8152 14.3369 46.9564 14.3369H61.826C61.9673 14.3369 62.1027 14.393 62.2026 14.4929C62.3025 14.5928 62.3586 14.7283 62.3586 14.8695V14.8699C62.3604 15.9734 62.7995 17.0311 63.5798 17.8114C64.36 18.5917 65.4178 19.0308 66.5213 19.0326H66.5217C66.6629 19.0326 66.7984 19.0887 66.8983 19.1886C66.9981 19.2884 67.0543 19.4239 67.0543 19.5652V35.2173C67.0543 35.3586 66.9981 35.4941 66.8983 35.594C66.7984 35.6938 66.6629 35.75 66.5217 35.75H66.5213C65.4178 35.7517 64.36 36.1908 63.5798 36.9711C62.7995 37.7514 62.3604 38.8091 62.3586 39.9126V39.913C62.3586 40.0543 62.3025 40.1897 62.2026 40.2896L62.3794 40.4664L62.2026 40.2896C62.1027 40.3895 61.9673 40.4456 61.826 40.4456H46.9564C46.8152 40.4456 46.6797 40.3895 46.5798 40.2896C46.4799 40.1897 46.4238 40.0543 46.4238 39.913C46.4238 39.7717 46.4799 39.6363 46.5798 39.5364C46.6797 39.4365 46.8152 39.3804 46.9564 39.3804H61.0997Z" stroke="white" stroke-width="0.5"/>
  <path d="M6.26053 6.01053H6.01053V6.26053V7.04314C6.01053 7.1844 5.95442 7.31986 5.85453 7.41975C5.75465 7.51963 5.61918 7.57575 5.47792 7.57575C5.33667 7.57575 5.20119 7.51963 5.10131 7.41975C5.00143 7.31986 4.94531 7.1844 4.94531 7.04314V5.47792C4.94531 5.33666 5.00143 5.2012 5.10131 5.10131C5.20119 5.00143 5.33667 4.94531 5.47792 4.94531H66.5214C66.6627 4.94531 66.7981 5.00143 66.898 5.10131L67.0745 4.92486L66.898 5.10131C66.9979 5.2012 67.054 5.33667 67.054 5.47792V7.04314C67.054 7.18439 66.9979 7.31986 66.898 7.41975L67.0748 7.59652L66.898 7.41975C66.7981 7.51963 66.6627 7.57575 66.5214 7.57575C66.3801 7.57575 66.2447 7.51963 66.1448 7.41975L65.968 7.59652L66.1448 7.41975C66.0449 7.31986 65.9888 7.18439 65.9888 7.04314V6.26053V6.01053H65.7388H6.26053Z" stroke="white" stroke-width="0.5"/>
  <path d="M10.9558 1.31522H10.7058V1.56522V2.34783C10.7058 2.48908 10.6497 2.62455 10.5498 2.72444C10.45 2.82432 10.3145 2.88043 10.1732 2.88043C10.032 2.88043 9.89651 2.82432 9.79662 2.72444C9.69674 2.62455 9.64062 2.48908 9.64062 2.34783V0.782609C9.64062 0.641354 9.69674 0.505884 9.79662 0.405999C9.89651 0.306114 10.032 0.25 10.1732 0.25H61.8254C61.9667 0.25 62.1021 0.306115 62.202 0.405999C62.3019 0.505884 62.358 0.641354 62.358 0.782609V2.34783C62.358 2.48908 62.3019 2.62455 62.202 2.72444C62.1021 2.82432 61.9667 2.88043 61.8254 2.88043C61.6841 2.88043 61.5487 2.82432 61.4488 2.72444C61.3489 2.62455 61.2928 2.48908 61.2928 2.34783V1.56522V1.31522H61.0428H10.9558Z" stroke="white" stroke-width="0.5"/>
</symbol>


<symbol id="topic-10-icon" xmlns="http://www.w3.org/2000/svg"  viewBox="0 0 64 60" fill="none">
  <path d="M27.4504 40.0176V40.1913V43.1718H36.5504V40.1913V40.0176L36.7131 39.957C39.2522 39.0114 41.4384 37.3251 42.9813 35.1233C44.524 32.9215 45.3503 30.3086 45.3504 27.6324L27.4504 40.0176ZM27.4504 40.0176L27.2876 39.957M27.4504 40.0176L27.2876 39.957M27.2876 39.957C25.0084 39.1085 23.0082 37.6611 21.5034 35.7718C19.9987 33.8825 19.0466 31.6234 18.7499 29.239C18.4532 26.8546 18.8231 24.4355 19.8197 22.2434C20.8163 20.0513 22.4019 18.1696 24.405 16.8024C26.4082 15.4351 28.7526 14.6345 31.1843 14.4875C33.616 14.3406 36.0419 14.853 38.1993 15.9689C40.3568 17.0849 42.1633 18.7618 43.4236 20.8176C44.6839 22.8735 45.3501 25.2301 45.3504 27.6323L27.2876 39.957Z" stroke="white" stroke-width="0.5"/>
  <path d="M3.38981 58.0248L3.60315 57.3934L7.33754 46.3408C7.33755 46.3408 7.33755 46.3408 7.33755 46.3408C7.3664 46.2553 7.37312 46.1642 7.35715 46.0757C7.3412 45.9873 7.30308 45.9039 7.24594 45.8332C1.92172 39.2996 1.35 31.4769 1.35 28.4209C1.35 26.0333 1.71981 19.8456 5.17652 13.9889C7.33163 10.3137 10.4631 7.28986 14.2323 5.24366C18.9794 2.64154 24.9627 1.32894 32 1.32894C39.0373 1.32894 45.0206 2.64154 49.7677 5.24366C53.537 7.28992 56.6685 10.3139 58.8237 13.9893C62.2802 19.8458 62.65 26.0334 62.65 28.4209C62.65 30.8085 62.2802 36.9962 58.8235 42.8529C56.6683 46.5282 53.5368 49.5521 49.7675 51.5983C49.7674 51.5983 49.7674 51.5983 49.7673 51.5984L49.648 51.3787C44.9472 53.9555 39.008 55.2629 32 55.2629C25.1776 55.2629 19.3632 54.0218 14.72 51.5776L3.38981 58.0248ZM3.38981 58.0248L3.96579 57.6894L14.0644 51.8098L3.38981 58.0248ZM59.7747 13.4463L59.7751 13.447C63.3615 19.524 63.75 25.9424 63.75 28.4209C63.75 30.8994 63.3615 37.3178 59.7751 43.3948L59.7747 43.3955C57.5239 47.2388 54.2496 50.401 50.3064 52.5389L50.3054 52.5395C45.4107 55.2237 39.2532 56.5918 32 56.5918C25.1325 56.5918 19.2407 55.3652 14.4842 52.9557L14.3631 52.8943L14.2457 52.9624L2.68092 59.6729L2.67864 59.6743C2.59512 59.7239 2.49909 59.7501 2.40109 59.7497H2.40019C2.31252 59.7496 2.22626 59.729 2.14854 59.6897C2.07084 59.6504 2.00403 59.5936 1.95342 59.5243C1.90282 59.4549 1.8698 59.375 1.85682 59.2911C1.84385 59.2072 1.85124 59.1214 1.87846 59.0407C1.87846 59.0407 1.87847 59.0407 1.87847 59.0407L6.15046 46.3903L6.19378 46.262L6.11002 46.1556C0.830158 39.4503 0.25 31.5573 0.25 28.4209C0.25 25.9424 0.638515 19.524 4.2249 13.447L4.22533 13.4463C6.47607 9.60302 9.75039 6.4408 13.6936 4.30291L13.6946 4.30234C18.5893 1.61815 24.7468 0.25 32 0.25C39.2532 0.25 45.4107 1.61815 50.3054 4.30234L50.3064 4.30291C54.2496 6.4408 57.5239 9.60302 59.7747 13.4463Z" stroke="white" stroke-width="0.5"/>
  <path d="M34.1508 42.6325V42.8825H34.4008H38.4008C38.5477 42.8825 38.688 42.9401 38.7909 43.0417C38.8937 43.1431 38.9508 43.28 38.9508 43.422C38.9508 43.564 38.8937 43.7008 38.7909 43.8023C38.688 43.9038 38.5477 43.9614 38.4008 43.9614H37.6008H37.3508V44.2114V45.7904C37.3508 47.1887 36.7879 48.5304 35.785 49.5201C34.7819 50.51 33.4208 51.0667 32.0008 51.0667C30.5808 51.0667 29.2197 50.51 28.2166 49.5201C27.2136 48.5304 26.6508 47.1887 26.6508 45.7904V44.2114V43.9614H26.4008H25.6008C25.4539 43.9614 25.3136 43.9038 25.2107 43.8023C25.1079 43.7008 25.0508 43.564 25.0508 43.422C25.0508 43.28 25.1079 43.1431 25.2107 43.0417C25.3136 42.9401 25.4539 42.8825 25.6008 42.8825H29.6008H29.8508V42.6325V30.0009V29.7509H29.6008H28.4008C27.8957 29.7509 27.4022 29.6031 26.9828 29.3265C26.5634 29.05 26.237 28.6573 26.0444 28.1984C25.8519 27.7396 25.8015 27.2349 25.8997 26.7481C25.9978 26.2612 26.2401 25.8136 26.5965 25.4619C26.9529 25.1101 27.4074 24.8702 27.9027 24.773C28.398 24.6758 28.9113 24.7257 29.3777 24.9164C29.844 25.107 30.2421 25.4296 30.5219 25.8428C30.8017 26.256 30.9508 26.7415 30.9508 27.2378V28.422V28.672H31.2008H32.8008H33.0508V28.422V27.2378C33.0508 26.7415 33.1999 26.256 33.4797 25.8428C33.7595 25.4296 34.1575 25.107 34.6239 24.9164C35.0902 24.7257 35.6036 24.6758 36.0989 24.773C36.5942 24.8702 37.0487 25.1101 37.4051 25.4619C37.7615 25.8136 38.0038 26.2612 38.1019 26.7481C38.2 27.2349 38.1497 27.7396 37.9571 28.1984C37.7645 28.6573 37.4382 29.05 37.0188 29.3265C36.5993 29.6031 36.1059 29.7509 35.6008 29.7509H34.4008H34.1508V30.0009V42.6325ZM34.1508 28.422V28.672H34.4008H35.6008C35.8868 28.672 36.1667 28.5883 36.4051 28.4311C36.6435 28.2739 36.8298 28.0501 36.94 27.7877C37.0501 27.5252 37.079 27.2362 37.0228 26.9573C36.9666 26.6785 36.8279 26.4228 36.6249 26.2225C36.4219 26.0221 36.1637 25.8861 35.883 25.831C35.6024 25.7759 35.3115 25.8042 35.047 25.9123C34.7824 26.0204 34.5557 26.2038 34.396 26.4397L34.603 26.5799L34.396 26.4397C34.2363 26.6756 34.1508 26.9534 34.1508 27.2378V28.422ZM29.6008 28.672H29.8508V28.422V27.2378C29.8508 26.8563 29.6972 26.4912 29.4249 26.2225C29.1527 25.9539 28.7843 25.8036 28.4008 25.8036C28.0173 25.8036 27.6488 25.9539 27.3766 26.2225C27.1044 26.4912 26.9508 26.8563 26.9508 27.2378C26.9508 27.6192 27.1044 27.9844 27.3766 28.2531C27.6488 28.5217 28.0173 28.672 28.4008 28.672H29.6008ZM31.2008 29.7509H30.9508V30.0009V42.6325V42.8825H31.2008H32.8008H33.0508V42.6325V30.0009V29.7509H32.8008H31.2008ZM28.0008 43.9614H27.7508V44.2114V45.7904C27.7508 46.9047 28.1994 47.9727 28.9968 48.7596C29.794 49.5463 30.8747 49.9878 32.0008 49.9878C33.1269 49.9878 34.2075 49.5463 35.0048 48.7596C35.8022 47.9727 36.2508 46.9047 36.2508 45.7904V44.2114V43.9614H36.0008H28.0008Z" stroke="white" stroke-width="0.5"/>
  <path d="M28.1839 11.4783L28.184 11.4786C28.2026 11.5467 28.2074 11.6176 28.1981 11.6875C28.1889 11.7573 28.1658 11.8249 28.13 11.8862C28.0942 11.9475 28.0464 12.0015 27.9892 12.045C27.9319 12.0884 27.8664 12.1204 27.7962 12.1391C27.7261 12.1577 27.6529 12.1625 27.5808 12.1532C27.5087 12.144 27.4393 12.1208 27.3765 12.0851C27.3138 12.0495 27.259 12.0021 27.2152 11.9459C27.1714 11.8897 27.1394 11.8258 27.1208 11.7577C27.1208 11.7577 27.1208 11.7576 27.1208 11.7575L25.6719 6.42017C25.6381 6.28432 25.6594 6.14067 25.7317 6.01964C25.8045 5.89792 25.9234 5.80836 26.0635 5.77141C26.2038 5.73445 26.353 5.75343 26.4789 5.82388C26.6041 5.89397 26.6955 6.00902 26.7349 6.14361L28.1839 11.4783Z" stroke="white" stroke-width="0.5"/>
  <path d="M36.2062 12.1379L36.2062 12.1379L36.2041 12.1374C36.0624 12.1 35.9425 12.0089 35.8701 11.8853L35.6544 12.0117L35.8701 11.8853C35.7977 11.7618 35.7781 11.6154 35.8153 11.4781C35.8153 11.4781 35.8153 11.4781 35.8153 11.4781L37.2642 6.14361C37.3036 6.00902 37.3951 5.89397 37.5203 5.82388C37.6461 5.75343 37.7954 5.73445 37.9356 5.77141C38.0758 5.80836 38.1947 5.89792 38.2674 6.01964C38.3397 6.14067 38.361 6.28432 38.3272 6.42017L36.8783 11.7578L36.878 11.759C36.8599 11.8269 36.8283 11.8908 36.7848 11.9469C36.7413 12.0031 36.6868 12.0503 36.6243 12.0858C36.5617 12.1213 36.4926 12.1442 36.4207 12.1532C36.3489 12.1622 36.2759 12.157 36.2062 12.1379Z" stroke="white" stroke-width="0.5"/>
  <path d="M43.878 16.6994L43.8779 16.4494C43.8058 16.4494 43.7346 16.4352 43.6683 16.4077C43.6021 16.3803 43.5423 16.3401 43.4924 16.2897L43.4924 16.2897L43.49 16.2873C43.4391 16.2373 43.3989 16.1781 43.3715 16.1131C43.3441 16.0481 43.3301 15.9785 43.3301 15.9083C43.3301 15.8381 43.3441 15.7686 43.3715 15.7036C43.3989 15.6386 43.4391 15.5793 43.49 15.5293L43.4905 15.5288L47.4488 11.6194C47.4489 11.6194 47.4489 11.6194 47.4489 11.6194C47.552 11.5177 47.6925 11.46 47.8396 11.46C47.9868 11.46 48.1273 11.5177 48.2304 11.6194C48.3334 11.721 48.3906 11.8582 48.3906 12.0004C48.3906 12.1427 48.3334 12.2798 48.2304 12.3814L44.2689 16.2877L44.2681 16.2885C44.2172 16.3391 44.1566 16.3795 44.0895 16.4072C44.0224 16.4349 43.9504 16.4492 43.8775 16.4494L43.878 16.6994ZM43.878 16.6994C43.7731 16.6994 43.6692 16.6788 43.5725 16.6387C43.4758 16.5985 43.3882 16.5397 43.3148 16.4657H44.4444C44.3703 16.5395 44.282 16.5982 44.1848 16.6383C44.0876 16.6784 43.9834 16.6992 43.878 16.6994Z" stroke="white" stroke-width="0.5"/>
  <path d="M20.51 15.5293L20.5095 15.5288L16.5512 11.6194C16.5512 11.6194 16.5512 11.6194 16.5511 11.6194C16.5511 11.6194 16.5511 11.6194 16.5511 11.6194C16.5001 11.569 16.4394 11.529 16.3723 11.5015C16.3052 11.4741 16.2332 11.46 16.1604 11.46C16.0876 11.46 16.0155 11.4741 15.9484 11.5015C15.8814 11.529 15.8206 11.5691 15.7696 11.6194C15.7186 11.6698 15.6783 11.7294 15.6509 11.7947C15.6234 11.86 15.6094 11.9299 15.6094 12.0004C15.6094 12.0709 15.6234 12.1408 15.6509 12.2062C15.6783 12.2715 15.7185 12.331 15.7695 12.3814C15.7695 12.3814 15.7696 12.3814 15.7696 12.3814L19.7311 16.2877L20.51 15.5293ZM20.51 15.5293C20.5609 15.5793 20.6011 15.6386 20.6285 15.7036C20.6559 15.7686 20.6699 15.8381 20.6699 15.9083C20.6699 15.9785 20.6559 16.0481 20.6285 16.1131L20.8589 16.2101L20.51 15.5293Z" stroke="white" stroke-width="0.5"/>
</symbol>


<symbol id="topic-11-icon" xmlns="http://www.w3.org/2000/svg"  viewBox="0 0 64 60" fill="none">
  <path d="M55.7032 21.3492L51.8364 23.9938L48.5977 17.0114L53.1079 15.7676L55.7032 21.3492Z" fill="white"/>
  <path d="M12.349 47.9694L4.77931 31.6693L21.0795 24.0996L28.6492 40.3997L12.349 47.9694Z" stroke="white" stroke-width="0.5"/>
  <path d="M4.97861 38.1156L4.75179 38.2207C4.78146 38.2847 4.79778 38.3541 4.79977 38.4246C4.80177 38.4951 4.78939 38.5653 4.7634 38.6309C4.73739 38.6964 4.6983 38.756 4.64849 38.806C4.59872 38.856 4.53928 38.8953 4.47379 38.9216L4.47366 38.9212L4.46151 38.9269L2.36803 39.8998L2.14152 40.005L2.24657 40.2316L2.89309 41.6263L2.99814 41.8529L3.22486 41.748L5.32142 40.7782L5.32157 40.7785L5.33339 40.7723C5.39573 40.7393 5.46416 40.7193 5.53448 40.7136C5.60479 40.708 5.67555 40.7166 5.74241 40.7392C5.80923 40.7617 5.87076 40.7976 5.92332 40.8447L6.09019 40.6585L5.92332 40.8447C5.97584 40.8918 6.01824 40.9491 6.04791 41.0131C6.0776 41.0771 6.09393 41.1465 6.09592 41.217C6.09792 41.2875 6.08552 41.3576 6.05951 41.4232C6.03351 41.4888 5.99442 41.5484 5.94461 41.5984C5.89479 41.6484 5.83538 41.6877 5.76994 41.7139L5.7698 41.7136L5.75766 41.7193L3.66414 42.6921L3.43722 42.7976L3.54287 43.0244L4.19247 44.419L4.29781 44.6452L4.52418 44.5403L6.61769 43.5705L6.61784 43.5708L6.62953 43.5647C6.6919 43.5317 6.76029 43.5117 6.83059 43.506C6.9009 43.5003 6.97166 43.509 7.03852 43.5315C7.10537 43.5541 7.16694 43.59 7.21947 43.6371C7.27201 43.6842 7.31439 43.7414 7.34406 43.8054C7.37372 43.8694 7.39004 43.9388 7.39204 44.0093C7.39403 44.0798 7.38164 44.15 7.35562 44.2156C7.3296 44.2812 7.29052 44.3408 7.24076 44.3907C7.19097 44.4407 7.13152 44.48 7.06605 44.5063L7.06592 44.506L7.05377 44.5116L4.96025 45.4845L4.73362 45.5898L4.83885 45.8165C5.21056 46.6171 5.88509 47.2374 6.71408 47.5408C7.54169 47.8436 8.45559 47.806 9.25537 47.4361C9.37863 47.3845 9.51709 47.3823 9.64194 47.4302C9.76787 47.4784 9.87009 47.5737 9.92704 47.696C9.98399 47.8183 9.99118 47.9579 9.94709 48.0853C9.90343 48.2115 9.81287 48.3161 9.69427 48.3772C8.64452 48.8631 7.44484 48.9127 6.35846 48.5151C5.27063 48.117 4.38552 47.3031 3.89775 46.2525L3.89773 46.2524L0.655904 39.2731C0.655893 39.2731 0.655882 39.273 0.655871 39.273C0.168252 38.2223 0.117965 37.0209 0.516063 35.9331C0.914171 34.8453 1.72805 33.9601 2.77874 33.4724L2.77888 33.4727L2.79039 33.4666C2.85274 33.4336 2.92117 33.4136 2.99149 33.4079C3.0618 33.4023 3.13256 33.4109 3.19942 33.4335L3.27925 33.1966L3.19942 33.4335C3.26629 33.456 3.32785 33.4919 3.38036 33.539C3.43289 33.5861 3.47528 33.6433 3.50495 33.7074C3.53461 33.7713 3.55094 33.8407 3.55293 33.9113C3.55492 33.9817 3.54253 34.0519 3.51652 34.1175C3.49049 34.1831 3.45142 34.2427 3.40165 34.2927C3.35186 34.3426 3.29241 34.382 3.22695 34.4082L3.22681 34.4079L3.21475 34.4135C2.41407 34.7852 1.79382 35.4597 1.49044 36.2887C1.18706 37.1177 1.2254 38.0333 1.59702 38.834L1.70213 39.0605L1.92874 38.9556L4.0253 37.9859L4.02545 37.9862L4.03727 37.9799C4.09964 37.9469 4.16808 37.927 4.23837 37.9213C4.30867 37.9156 4.37939 37.9243 4.44626 37.9468C4.51311 37.9693 4.57468 38.0052 4.6272 38.0523C4.67973 38.0994 4.72212 38.1567 4.75179 38.2207L4.97861 38.1156Z" stroke="white" stroke-width="0.5"/>
  <path d="M62.5641 14.2057L62.5641 14.2057C62.6893 14.1475 62.8325 14.1415 62.9622 14.1889C63.0919 14.2362 63.1975 14.3332 63.2557 14.4584C63.3139 14.5837 63.3199 14.7269 63.2726 14.8566C63.2252 14.9862 63.1282 15.0918 63.003 15.15C63.003 15.15 63.003 15.15 63.003 15.15L58.8145 17.095C58.745 17.126 58.6699 17.1424 58.5937 17.1433H58.5822C58.4653 17.1406 58.3527 17.0987 58.2626 17.0241C58.1719 16.9491 58.1094 16.8455 58.0853 16.7304C58.0611 16.6152 58.0768 16.4953 58.1297 16.3902C58.1825 16.2851 58.2695 16.201 58.3764 16.1518L58.3771 16.1515L62.5641 14.2057Z" stroke="white" stroke-width="0.5"/>
  <path d="M53.3917 12.6006L53.3919 12.3506C53.3306 12.3506 53.2697 12.34 53.212 12.3194C53.1481 12.2959 53.0894 12.2602 53.0392 12.2141C52.9889 12.1678 52.9482 12.1121 52.9194 12.0502C52.8906 11.9882 52.8744 11.9212 52.8715 11.8529C52.8687 11.7846 52.8794 11.7164 52.9029 11.6523L52.903 11.652L54.4885 7.31421C54.4885 7.31418 54.4885 7.31415 54.4885 7.31412C54.512 7.25002 54.5479 7.19113 54.5942 7.14082C54.6405 7.09048 54.6961 7.04979 54.7581 7.02103C54.8201 6.99226 54.8871 6.97597 54.9554 6.97311C55.0237 6.97025 55.0919 6.98086 55.1561 7.00435C55.2202 7.02784 55.2792 7.06374 55.3295 7.10999C55.3798 7.15627 55.4205 7.212 55.4493 7.27397C55.478 7.33593 55.4943 7.40297 55.4972 7.47128C55.5 7.53958 55.4894 7.60774 55.466 7.67187C55.466 7.67189 55.466 7.6719 55.466 7.67192L53.8774 12.0097L53.8771 12.0103C53.8409 12.11 53.7749 12.1962 53.6881 12.257C53.6012 12.3179 53.4977 12.3506 53.3917 12.3506L53.3917 12.6006ZM53.3917 12.6006C53.5491 12.6006 53.7027 12.5521 53.8315 12.4618C53.9604 12.3714 54.0584 12.2436 54.1121 12.0957M53.3917 12.6006C53.3015 12.6005 53.2119 12.5849 53.1269 12.5544L54.1121 12.0957M54.1121 12.0957L55.7007 7.75784C55.7355 7.66283 55.7512 7.5619 55.747 7.46081C55.7427 7.35973 55.7186 7.26048 55.676 7.16871C55.6334 7.07694 55.5732 6.99445 55.4987 6.92597C55.4242 6.85749 55.337 6.80435 55.242 6.76958C55.147 6.73481 55.0461 6.7191 54.945 6.72333C54.8439 6.72757 54.7446 6.75167 54.6528 6.79427C54.5611 6.83686 54.4786 6.89712 54.4101 6.9716C54.3417 7.04607 54.2885 7.13329 54.2537 7.2283L54.1121 12.0957Z" stroke="white" stroke-width="0.5"/>
  <path d="M63.4083 24.7745L63.4089 24.7747C63.5239 24.8164 63.6205 24.8974 63.6816 25.0033C63.7428 25.1093 63.7646 25.2334 63.7432 25.3539C63.7219 25.4744 63.6587 25.5834 63.5649 25.6619C63.471 25.7403 63.3524 25.7832 63.2301 25.7828L63.2296 25.7828C63.1683 25.7828 63.1074 25.7722 63.0497 25.7516C63.0495 25.7515 63.0493 25.7514 63.0491 25.7513L58.7127 24.1664C58.7127 24.1664 58.7127 24.1663 58.7126 24.1663C58.7126 24.1663 58.7126 24.1663 58.7126 24.1663C58.583 24.1189 58.4776 24.0219 58.4195 23.8967C58.3614 23.7715 58.3554 23.6284 58.4028 23.4988C58.4502 23.3692 58.5472 23.2637 58.6724 23.2056C58.7344 23.1768 58.8014 23.1605 58.8697 23.1577C58.938 23.1548 59.0062 23.1654 59.0704 23.1889L59.0705 23.189L63.4083 24.7745Z" stroke="white" stroke-width="0.5"/>
  <path d="M41.7335 0.997229L41.7334 0.997078C41.6279 0.769618 41.4584 0.577818 41.2457 0.445187C41.0329 0.312559 40.7861 0.244834 40.5354 0.250307C40.2848 0.25578 40.0412 0.334211 39.8344 0.476005C39.6277 0.617787 39.4667 0.816762 39.3713 1.04857C39.3713 1.0486 39.3713 1.04862 39.3713 1.04864L41.7335 0.997229ZM41.7335 0.997229L59.3558 38.945C59.46 39.1693 59.4974 39.4189 59.4637 39.6639C59.4299 39.9089 59.3264 40.139 59.1655 40.3269C59.0046 40.5147 58.7931 40.6523 58.5561 40.7232C58.3192 40.7941 58.0669 40.7954 57.8292 40.7269L57.8291 40.7269M41.7335 0.997229L57.8291 40.7269M57.8291 40.7269C53.653 39.5244 42.7093 37.0779 31.3375 40.342L57.8291 40.7269ZM22.8634 23.0016L22.7272 23.2112L30.9419 40.2969C30.8212 40.2301 30.732 40.118 30.6939 39.9853C30.6559 39.8527 30.6721 39.7104 30.7389 39.5897C30.8058 39.469 30.9179 39.3798 31.0506 39.3417L31.0506 39.3417C42.6704 36.0052 53.847 38.503 58.1158 39.7296L58.6423 39.8809L58.4116 39.3841L40.7892 1.43316L40.5486 0.914955L40.3313 1.44335C38.5889 5.67958 33.4681 16.2181 23.4559 22.9837L23.4558 22.9836L23.4499 22.9878C23.3935 23.0284 23.3295 23.0572 23.2617 23.0726C23.194 23.088 23.1238 23.0896 23.0554 23.0774C22.987 23.0652 22.9217 23.0394 22.8634 23.0016Z" stroke="white" stroke-width="0.5"/>
  <path d="M25.7013 44.5221L25.7011 44.5218C25.6619 44.4658 25.6121 44.4181 25.5545 44.3813C25.4968 44.3446 25.4325 44.3196 25.3652 44.3077L25.4087 44.0615L25.3652 44.3077C25.2293 44.2837 25.0894 44.3147 24.9764 44.3939C24.8633 44.473 24.7863 44.5939 24.7623 44.7298C24.7383 44.8656 24.7693 45.0054 24.8483 45.1184C27.2123 48.4802 31.0582 51.3098 33.15 52.7013L33.0115 52.9094M25.7013 44.5221L33.4108 54.1494C33.4918 54.0384 33.5496 53.9121 33.5805 53.7781C33.6114 53.6439 33.6148 53.5048 33.5903 53.3693C33.5659 53.2338 33.5142 53.1046 33.4383 52.9897C33.3625 52.8747 33.264 52.7764 33.149 52.7006L33.0115 52.9094M25.7013 44.5221C27.9739 47.7579 31.7138 50.4975 33.7253 51.8365C33.9542 51.9901 34.1498 52.1883 34.3005 52.4192C34.4512 52.6502 34.5539 52.9092 34.6023 53.1807C34.6507 53.4522 34.6439 53.7307 34.5823 53.9996C34.5207 54.2684 34.4055 54.5221 34.2437 54.7454L31.3346 58.7474C31.3346 58.7474 31.3346 58.7474 31.3346 58.7474C31.0363 59.1577 30.597 59.4434 30.1011 59.5498C29.6051 59.6562 29.0873 59.5758 28.647 59.324C23.0106 56.0971 19.4078 51.0707 17.761 48.3587L17.7568 48.3518L17.7521 48.3451C17.7111 48.2865 17.6826 48.22 17.6685 48.1498C17.6543 48.0797 17.6548 48.0073 17.6699 47.9374C17.685 47.8674 17.7144 47.8014 17.7563 47.7433C17.7982 47.6852 17.8515 47.6364 17.9131 47.6C17.9747 47.5635 18.0432 47.5402 18.1142 47.5314C18.1852 47.5226 18.2573 47.5286 18.3259 47.549C18.3945 47.5694 18.4581 47.6037 18.5129 47.6499C18.5676 47.696 18.6122 47.753 18.6439 47.8171L18.6487 47.8268L18.6543 47.8361C20.243 50.4561 23.7273 55.3311 29.1716 58.4403C29.3899 58.5652 29.6468 58.6047 29.8926 58.5512C30.1381 58.4977 30.3552 58.3552 30.5018 58.1511C30.502 58.1508 30.5022 58.1506 30.5023 58.1503L33.4103 54.15L25.7013 44.5221ZM33.0115 52.9094C33.0982 52.9665 33.1725 53.0407 33.2297 53.1274C33.2869 53.2141 33.3259 53.3115 33.3443 53.4137C33.3627 53.5159 33.3602 53.6208 33.3369 53.722C33.3135 53.8232 33.2699 53.9185 33.2085 54.0024L24.6437 45.262C27.0358 48.6639 30.9149 51.5148 33.0115 52.9094Z" stroke="white" stroke-width="0.5"/>
</symbol>



<symbol id="topic-12-icon" xmlns="http://www.w3.org/2000/svg" viewBox="0 0 64 53" >
  <path d="M36.6191 22.9648C36.6191 25.5208 34.5471 27.5927 31.9912 27.5927C29.4353 27.5927 27.3633 25.5208 27.3633 22.9648C27.3633 20.4089 29.4353 18.3369 31.9912 18.3369C34.5471 18.3369 36.6191 20.4089 36.6191 22.9648Z" stroke="white" stroke-width="0.5"/>
  <path d="M10.1855 26.4434C10.1855 28.9993 8.11354 31.0713 5.55761 31.0713C3.00168 31.0713 0.929688 28.9993 0.929688 26.4434C0.929688 23.8874 3.00168 21.8154 5.55761 21.8154C8.11353 21.8154 10.1855 23.8874 10.1855 26.4434Z" stroke="white" stroke-width="0.5"/>
  <path d="M63.0703 26.4434C63.0703 28.9993 60.9983 31.0713 58.4424 31.0713C55.8864 31.0713 53.8145 28.9993 53.8145 26.4434C53.8145 23.8874 55.8864 21.8154 58.4424 21.8154C60.9983 21.8154 63.0703 23.8874 63.0703 26.4434Z" stroke="white" stroke-width="0.5"/>
  <mask id="path-4-inside-1_331_267" fill="white">
    <path d="M59.8261 34.7829H58.3096C57.3959 34.7821 56.5073 35.0811 55.7799 35.6341C55.0526 36.187 54.5268 36.9633 54.2831 37.8438L53.0337 42.4351H46.6087C45.8707 42.4351 45.1629 42.7283 44.6411 43.2501C44.1193 43.772 43.8261 44.4797 43.8261 45.2177C43.8252 45.7067 43.9549 46.187 44.2017 46.609H42.4348V35.4786C42.4348 34.3716 41.995 33.31 41.2123 32.5272C40.4295 31.7444 39.3679 31.3047 38.2609 31.3047H25.7391C24.6321 31.3047 23.5705 31.7444 22.7877 32.5272C22.005 33.31 21.5652 34.3716 21.5652 35.4786V46.609H19.8011C20.0453 46.186 20.1738 45.7062 20.1738 45.2177C20.1738 44.7293 20.0453 44.2495 19.8011 43.8265C19.5568 43.4035 19.2056 43.0522 18.7826 42.8079C18.3596 42.5637 17.8797 42.4351 17.3913 42.4351H10.9663L9.71688 37.8577C9.47324 36.9772 8.94741 36.2009 8.22007 35.648C7.49274 35.0951 6.60406 34.7961 5.69042 34.7969H4.17391C3.06692 34.7969 2.00528 35.2366 1.22252 36.0194C0.43976 36.8021 0 37.8638 0 38.9708V51.4925C0 51.677 0.0732763 51.854 0.203736 51.9844C0.334196 52.1149 0.511154 52.1882 0.695652 52.1882C0.880151 52.1882 1.05711 52.1149 1.18757 51.9844C1.31803 51.854 1.3913 51.677 1.3913 51.4925V38.9708C1.3913 38.2328 1.68448 37.525 2.20632 37.0032C2.72816 36.4813 3.43592 36.1882 4.17391 36.1882H5.69042C6.301 36.188 6.89468 36.3887 7.37992 36.7593C7.86517 37.1299 8.21506 37.6499 8.37564 38.2389L9.76695 43.3283C9.80677 43.4756 9.8941 43.6056 10.0154 43.6982C10.1366 43.7908 10.285 43.8407 10.4376 43.8403H17.3941C17.7631 43.8403 18.117 43.9869 18.3779 44.2478C18.6388 44.5088 18.7854 44.8626 18.7854 45.2316C18.7854 45.6006 18.6388 45.9545 18.3779 46.2154C18.117 46.4764 17.7631 46.6229 17.3941 46.6229H7.96104C7.8151 46.6228 7.6729 46.5768 7.55455 46.4914C7.4362 46.406 7.34768 46.2856 7.30156 46.1471L5.53183 40.8379C5.50563 40.7481 5.46158 40.6644 5.40231 40.592C5.34304 40.5196 5.26974 40.4599 5.18685 40.4165C5.10397 40.3731 5.01318 40.3468 4.9199 40.3393C4.82663 40.3318 4.7328 40.3432 4.64402 40.3727C4.55525 40.4023 4.47333 40.4495 4.40323 40.5115C4.33312 40.5735 4.27626 40.649 4.23601 40.7334C4.19575 40.8179 4.17296 40.9097 4.16899 41.0031C4.16501 41.0966 4.17993 41.19 4.21287 41.2776L5.98261 46.5868C6.14784 47.0863 6.49706 47.5042 6.95931 47.7555V51.4786C6.95931 51.6631 7.03258 51.84 7.16304 51.9705C7.2935 52.101 7.47046 52.1743 7.65496 52.1743H56.3506C56.5351 52.1743 56.712 52.101 56.8425 51.9705C56.9729 51.84 57.0463 51.6631 57.0463 51.4786V47.7416C57.5085 47.4903 57.8577 47.0724 58.023 46.5729L59.7927 41.2636C59.8431 41.0909 59.8246 40.9054 59.7411 40.746C59.6576 40.5866 59.5156 40.4658 59.3449 40.4089C59.1742 40.352 58.988 40.3635 58.8256 40.4409C58.6632 40.5183 58.5371 40.6556 58.4737 40.824L56.704 46.1332C56.6579 46.2717 56.5694 46.3921 56.451 46.4775C56.3327 46.5629 56.1905 46.6089 56.0445 46.609H46.6115C46.2425 46.609 45.8886 46.4625 45.6277 46.2015C45.3668 45.9406 45.2202 45.5867 45.2202 45.2177C45.2202 44.8487 45.3668 44.4949 45.6277 44.2339C45.8886 43.973 46.2425 43.8264 46.6115 43.8264H53.568C53.7206 43.8268 53.869 43.7768 53.9902 43.6843C54.1115 43.5917 54.1988 43.4617 54.2386 43.3144L55.6299 38.225C55.7905 37.6359 56.1404 37.116 56.6256 36.7454C57.1109 36.3748 57.7045 36.1741 58.3151 36.1743H59.8261C60.5641 36.1743 61.2718 36.4674 61.7937 36.9893C62.3155 37.5111 62.6087 38.2189 62.6087 38.9569V51.4786C62.6087 51.6631 62.682 51.84 62.8124 51.9705C62.9429 52.101 63.1198 52.1743 63.3043 52.1743C63.4888 52.1743 63.6658 52.101 63.7963 51.9705C63.9267 51.84 64 51.6631 64 51.4786V38.9569C64 37.8499 63.5602 36.7882 62.7775 36.0055C61.9947 35.2227 60.9331 34.7829 59.8261 34.7829ZM22.9565 35.4786C22.9565 34.7406 23.2497 34.0328 23.7715 33.511C24.2934 32.9892 25.0011 32.696 25.7391 32.696H38.2609C38.9989 32.696 39.7066 32.9892 40.2285 33.511C40.7503 34.0328 41.0435 34.7406 41.0435 35.4786V46.609H38.2609V37.5656C38.2609 37.3811 38.1876 37.2041 38.0571 37.0737C37.9267 36.9432 37.7497 36.8699 37.5652 36.8699C37.3807 36.8699 37.2038 36.9432 37.0733 37.0737C36.9428 37.2041 36.8696 37.3811 36.8696 37.5656V46.609H27.1304V37.5656C27.1304 37.3811 27.0572 37.2041 26.9267 37.0737C26.7962 36.9432 26.6193 36.8699 26.4348 36.8699C26.2503 36.8699 26.0733 36.9432 25.9429 37.0737C25.8124 37.2041 25.7391 37.3811 25.7391 37.5656V46.609H22.9565V35.4786ZM55.6522 50.7829H8.34783V48.0003H55.6522V50.7829Z"/>
  </mask>
  <path d="M59.8261 34.7829H58.3096C57.3959 34.7821 56.5073 35.0811 55.7799 35.6341C55.0526 36.187 54.5268 36.9633 54.2831 37.8438L53.0337 42.4351H46.6087C45.8707 42.4351 45.1629 42.7283 44.6411 43.2501C44.1193 43.772 43.8261 44.4797 43.8261 45.2177C43.8252 45.7067 43.9549 46.187 44.2017 46.609H42.4348V35.4786C42.4348 34.3716 41.995 33.31 41.2123 32.5272C40.4295 31.7444 39.3679 31.3047 38.2609 31.3047H25.7391C24.6321 31.3047 23.5705 31.7444 22.7877 32.5272C22.005 33.31 21.5652 34.3716 21.5652 35.4786V46.609H19.8011C20.0453 46.186 20.1738 45.7062 20.1738 45.2177C20.1738 44.7293 20.0453 44.2495 19.8011 43.8265C19.5568 43.4035 19.2056 43.0522 18.7826 42.8079C18.3596 42.5637 17.8797 42.4351 17.3913 42.4351H10.9663L9.71688 37.8577C9.47324 36.9772 8.94741 36.2009 8.22007 35.648C7.49274 35.0951 6.60406 34.7961 5.69042 34.7969H4.17391C3.06692 34.7969 2.00528 35.2366 1.22252 36.0194C0.43976 36.8021 0 37.8638 0 38.9708V51.4925C0 51.677 0.0732763 51.854 0.203736 51.9844C0.334196 52.1149 0.511154 52.1882 0.695652 52.1882C0.880151 52.1882 1.05711 52.1149 1.18757 51.9844C1.31803 51.854 1.3913 51.677 1.3913 51.4925V38.9708C1.3913 38.2328 1.68448 37.525 2.20632 37.0032C2.72816 36.4813 3.43592 36.1882 4.17391 36.1882H5.69042C6.301 36.188 6.89468 36.3887 7.37992 36.7593C7.86517 37.1299 8.21506 37.6499 8.37564 38.2389L9.76695 43.3283C9.80677 43.4756 9.8941 43.6056 10.0154 43.6982C10.1366 43.7908 10.285 43.8407 10.4376 43.8403H17.3941C17.7631 43.8403 18.117 43.9869 18.3779 44.2478C18.6388 44.5088 18.7854 44.8626 18.7854 45.2316C18.7854 45.6006 18.6388 45.9545 18.3779 46.2154C18.117 46.4764 17.7631 46.6229 17.3941 46.6229H7.96104C7.8151 46.6228 7.6729 46.5768 7.55455 46.4914C7.4362 46.406 7.34768 46.2856 7.30156 46.1471L5.53183 40.8379C5.50563 40.7481 5.46158 40.6644 5.40231 40.592C5.34304 40.5196 5.26974 40.4599 5.18685 40.4165C5.10397 40.3731 5.01318 40.3468 4.9199 40.3393C4.82663 40.3318 4.7328 40.3432 4.64402 40.3727C4.55525 40.4023 4.47333 40.4495 4.40323 40.5115C4.33312 40.5735 4.27626 40.649 4.23601 40.7334C4.19575 40.8179 4.17296 40.9097 4.16899 41.0031C4.16501 41.0966 4.17993 41.19 4.21287 41.2776L5.98261 46.5868C6.14784 47.0863 6.49706 47.5042 6.95931 47.7555V51.4786C6.95931 51.6631 7.03258 51.84 7.16304 51.9705C7.2935 52.101 7.47046 52.1743 7.65496 52.1743H56.3506C56.5351 52.1743 56.712 52.101 56.8425 51.9705C56.9729 51.84 57.0463 51.6631 57.0463 51.4786V47.7416C57.5085 47.4903 57.8577 47.0724 58.023 46.5729L59.7927 41.2636C59.8431 41.0909 59.8246 40.9054 59.7411 40.746C59.6576 40.5866 59.5156 40.4658 59.3449 40.4089C59.1742 40.352 58.988 40.3635 58.8256 40.4409C58.6632 40.5183 58.5371 40.6556 58.4737 40.824L56.704 46.1332C56.6579 46.2717 56.5694 46.3921 56.451 46.4775C56.3327 46.5629 56.1905 46.6089 56.0445 46.609H46.6115C46.2425 46.609 45.8886 46.4625 45.6277 46.2015C45.3668 45.9406 45.2202 45.5867 45.2202 45.2177C45.2202 44.8487 45.3668 44.4949 45.6277 44.2339C45.8886 43.973 46.2425 43.8264 46.6115 43.8264H53.568C53.7206 43.8268 53.869 43.7768 53.9902 43.6843C54.1115 43.5917 54.1988 43.4617 54.2386 43.3144L55.6299 38.225C55.7905 37.6359 56.1404 37.116 56.6256 36.7454C57.1109 36.3748 57.7045 36.1741 58.3151 36.1743H59.8261C60.5641 36.1743 61.2718 36.4674 61.7937 36.9893C62.3155 37.5111 62.6087 38.2189 62.6087 38.9569V51.4786C62.6087 51.6631 62.682 51.84 62.8124 51.9705C62.9429 52.101 63.1198 52.1743 63.3043 52.1743C63.4888 52.1743 63.6658 52.101 63.7963 51.9705C63.9267 51.84 64 51.6631 64 51.4786V38.9569C64 37.8499 63.5602 36.7882 62.7775 36.0055C61.9947 35.2227 60.9331 34.7829 59.8261 34.7829ZM22.9565 35.4786C22.9565 34.7406 23.2497 34.0328 23.7715 33.511C24.2934 32.9892 25.0011 32.696 25.7391 32.696H38.2609C38.9989 32.696 39.7066 32.9892 40.2285 33.511C40.7503 34.0328 41.0435 34.7406 41.0435 35.4786V46.609H38.2609V37.5656C38.2609 37.3811 38.1876 37.2041 38.0571 37.0737C37.9267 36.9432 37.7497 36.8699 37.5652 36.8699C37.3807 36.8699 37.2038 36.9432 37.0733 37.0737C36.9428 37.2041 36.8696 37.3811 36.8696 37.5656V46.609H27.1304V37.5656C27.1304 37.3811 27.0572 37.2041 26.9267 37.0737C26.7962 36.9432 26.6193 36.8699 26.4348 36.8699C26.2503 36.8699 26.0733 36.9432 25.9429 37.0737C25.8124 37.2041 25.7391 37.3811 25.7391 37.5656V46.609H22.9565V35.4786ZM55.6522 50.7829H8.34783V48.0003H55.6522V50.7829Z" stroke="white" mask="url(#path-4-inside-1_331_267)"/>
  <path d="M15.5439 11.1991L15.6349 10.8804H15.3035C13.8938 10.8804 12.5419 10.3204 11.5451 9.32365C10.5483 8.32685 9.98828 6.9749 9.98828 5.56522C9.98828 4.15553 10.5483 2.80358 11.5451 1.80679C12.5419 0.80999 13.8938 0.25 15.3035 0.25H48.6948C50.1045 0.25 51.4564 0.80999 52.4532 1.80679C53.45 2.80358 54.01 4.15554 54.01 5.56522C54.01 6.9749 53.45 8.32685 52.4532 9.32365C51.4564 10.3204 50.1045 10.8804 48.6948 10.8804H18.7818H18.6782L18.605 10.9537L14.4176 15.141L15.5439 11.1991Z" stroke="white" stroke-width="0.5"/>
</symbol>




<symbol id="arrow-down-icon" xmlns="http://www.w3.org/2000/svg"  viewBox="0 0 40 6" >
<path d="M39 2.5C39.2761 2.5 39.5 2.72386 39.5 3C39.5 3.27614 39.2761 3.5 39 3.5L39 2.5ZM0 3L5 0.113252L5 5.88675L0 3ZM39 3.5L4.5 3.5L4.5 2.5L39 2.5L39 3.5Z" />
</symbol>

<symbol id="topic-arrow-down-icon" xmlns="http://www.w3.org/2000/svg" viewBox="0 0 6 20">
<path d="M3 20L0.113249 15H5.88675L3 20ZM3.5 0L3.5 15.5H2.5L2.5 0L3.5 0Z" />
</symbol>


<symbol id="close-icon" viewBox="0 0 32 32">
<path d="M31.708 25.708c-0-0-0-0-0-0l-9.708-9.708 9.708-9.708c0-0 0-0 0-0 0.105-0.105 0.18-0.227 0.229-0.357 0.133-0.356 0.057-0.771-0.229-1.057l-4.586-4.586c-0.286-0.286-0.702-0.361-1.057-0.229-0.13 0.048-0.252 0.124-0.357 0.228 0 0-0 0-0 0l-9.708 9.708-9.708-9.708c-0-0-0-0-0-0-0.105-0.104-0.227-0.18-0.357-0.228-0.356-0.133-0.771-0.057-1.057 0.229l-4.586 4.586c-0.286 0.286-0.361 0.702-0.229 1.057 0.049 0.13 0.124 0.252 0.229 0.357 0 0 0 0 0 0l9.708 9.708-9.708 9.708c-0 0-0 0-0 0-0.104 0.105-0.18 0.227-0.229 0.357-0.133 0.355-0.057 0.771 0.229 1.057l4.586 4.586c0.286 0.286 0.702 0.361 1.057 0.229 0.13-0.049 0.252-0.124 0.357-0.229 0-0 0-0 0-0l9.708-9.708 9.708 9.708c0 0 0 0 0 0 0.105 0.105 0.227 0.18 0.357 0.229 0.356 0.133 0.771 0.057 1.057-0.229l4.586-4.586c0.286-0.286 0.362-0.702 0.229-1.057-0.049-0.13-0.124-0.252-0.229-0.357z"></path>
</symbol>


</defs>
</svg>
